<svg width="30" height="30" viewBox="0 0 30 30" fill="none" xmlns="http://www.w3.org/2000/svg">
<g clip-path="url(#clip0_1482_9364)">
<path d="M9.375 5.62729V7.50229H27.1875V11.2139L25.1074 17.8148H8.78508L6.44133 0.9375H0.9375V2.8125H4.80867L7.15242 19.6898H26.4825L29.0625 11.5023V5.62729H9.375ZM10.3702 21.5827C9.37594 21.5838 8.42277 21.9792 7.71976 22.6823C7.01674 23.3853 6.62129 24.3384 6.62016 25.3327C6.62016 26.3272 7.01524 27.281 7.71851 27.9843C8.42177 28.6876 9.37559 29.0827 10.3702 29.0827C11.3647 29.0827 12.3185 28.6876 13.0218 27.9843C13.7251 27.281 14.1202 26.3272 14.1202 25.3327C14.119 24.3384 13.7236 23.3853 13.0206 22.6822C12.3176 21.9792 11.3644 21.5838 10.3702 21.5827ZM10.3702 27.2077C9.99932 27.2077 9.6368 27.0977 9.32846 26.8917C9.02012 26.6856 8.7798 26.3928 8.63788 26.0502C8.49597 25.7076 8.45884 25.3306 8.53118 24.9669C8.60353 24.6031 8.78211 24.2691 9.04433 24.0068C9.30655 23.7446 9.64065 23.566 10.0044 23.4937C10.3681 23.4213 10.7451 23.4585 11.0877 23.6004C11.4303 23.7423 11.7231 23.9826 11.9292 24.291C12.1352 24.5993 12.2452 24.9618 12.2452 25.3327C12.2446 25.8298 12.0468 26.3063 11.6953 26.6578C11.3438 27.0093 10.8673 27.2071 10.3702 27.2077ZM23.4952 21.5827C22.5009 21.5838 21.5478 21.9792 20.8448 22.6823C20.1417 23.3853 19.7463 24.3384 19.7452 25.3327C19.7452 26.3272 20.1402 27.281 20.8435 27.9843C21.5468 28.6876 22.5006 29.0827 23.4952 29.0827C24.4897 29.0827 25.4435 28.6876 26.1468 27.9843C26.8501 27.281 27.2452 26.3272 27.2452 25.3327C27.244 24.3384 26.8486 23.3853 26.1456 22.6822C25.4426 21.9792 24.4894 21.5838 23.4952 21.5827ZM23.4952 27.2077C23.1243 27.2077 22.7618 27.0977 22.4535 26.8917C22.1451 26.6856 21.9048 26.3928 21.7629 26.0502C21.621 25.7076 21.5838 25.3306 21.6562 24.9669C21.7285 24.6031 21.9071 24.2691 22.1693 24.0068C22.4316 23.7446 22.7656 23.566 23.1294 23.4937C23.4931 23.4213 23.8701 23.4585 24.2127 23.6004C24.5553 23.7423 24.8481 23.9826 25.0542 24.291C25.2602 24.5993 25.3702 24.9618 25.3702 25.3327C25.3696 25.8298 25.1718 26.3063 24.8203 26.6578C24.4688 27.0093 23.9923 27.2071 23.4952 27.2077Z" fill="#50BDFF"/>
</g>
<defs>
<clipPath id="clip0_1482_9364">
<rect width="30" height="30" fill="white"/>
</clipPath>
</defs>
</svg>
