<svg width="119" height="118" viewBox="0 0 119 118" fill="none" xmlns="http://www.w3.org/2000/svg">
<path d="M114.71 99.1873L101.687 87.2162L103.528 85.3746C105.107 83.7964 105.896 81.8226 105.896 79.8497C105.896 77.8768 105.107 75.7719 103.528 74.3247L81.429 52.3563C84.323 51.1726 87.6117 50.7781 91.0317 50.9093C98.0037 51.1726 104.844 48.5419 109.842 43.674C114.578 38.9383 117.209 32.6242 117.209 26.0469V24.5998C116.814 17.4968 113.394 10.9194 107.869 6.44611C98.9238 -0.65696 86.0315 -0.789212 77.0865 6.18276C70.5092 11.3131 66.8259 19.3375 67.4838 27.6252C67.7472 30.7825 67.2205 33.8079 66.0368 36.7021L43.806 14.7338C40.7807 11.7084 35.7817 11.7084 32.6241 14.7338L30.9137 16.5754L18.9427 3.552C16.9698 1.31582 14.207 0.132017 11.1816 0C8.15628 0 5.39333 1.05249 3.28834 3.15736C1.18338 5.26233 -0.000334628 8.02437 0.130977 11.0507C0.130977 14.076 1.44682 16.7067 3.68298 18.8117L16.7064 30.7827L15.9172 31.5718C12.8919 34.5972 12.8919 39.5962 15.9172 42.7538L39.2013 66.0379L3.81514 101.292C0.263135 104.844 0.263135 110.764 3.81514 114.316C5.65675 116.157 8.02511 116.947 10.3925 116.947C12.7599 116.947 15.1282 116.025 16.9698 114.316L52.356 78.9297L75.64 102.214C77.0871 103.661 79.06 104.581 81.165 104.581C83.27 104.581 85.2427 103.792 86.69 102.214L87.4791 101.425L99.4501 114.448C101.423 116.684 104.186 117.868 107.211 118H107.475C110.369 118 113 116.948 115.104 114.843C117.209 112.738 118.393 109.976 118.262 106.949C118.129 103.923 116.815 101.161 114.71 99.1874L114.71 99.1873ZM7.2363 14.8656C6.05259 13.8131 5.52591 12.4983 5.39469 10.919C5.39469 9.34071 5.92048 7.89364 6.97297 6.84127C8.02547 5.78877 9.34035 5.26298 10.9196 5.26298H11.0508C12.6291 5.26298 13.9449 5.92091 14.9975 7.1046L27.0998 20.2593L20.3911 26.968L7.2363 14.8656ZM19.733 38.9387C18.6805 37.8862 18.6805 36.308 19.733 35.2554L36.4397 18.5487C36.9655 18.0229 37.6234 17.7596 38.2813 17.7596C38.9393 17.7596 39.5972 18.0229 40.123 18.5487L63.1437 41.4381C62.3545 42.4906 61.5654 43.5431 60.6441 44.4635L42.8847 62.2228L19.733 38.9387ZM13.1557 110.5C11.5774 112.079 9.07796 112.079 7.63071 110.5C6.05243 108.922 6.05243 106.423 7.63071 104.975L64.3275 48.147C69.9835 42.491 73.0098 34.729 72.4831 27.2313C72.0886 20.6539 74.8505 14.3399 80.1129 10.2622C83.6649 7.49924 87.8739 6.18447 92.0839 6.18447C96.4249 6.18447 100.766 7.63153 104.317 10.3944C108.79 13.9464 111.42 19.0768 111.816 24.7328C112.079 30.3889 109.974 35.7825 106.028 39.7292C102.081 43.6758 96.6873 45.7808 91.1626 45.5175C83.1382 45.1229 75.3772 48.0171 70.1146 53.4108L13.1557 110.5ZM82.8756 98.398C81.8231 99.4505 80.1126 99.4505 79.1923 98.398L55.9082 75.2459L73.9299 57.2242C74.7191 56.4351 75.6403 55.646 76.5606 54.9881L99.5814 78.0088C100.634 79.0613 100.634 80.6395 99.5814 81.6921L82.8756 98.398ZM111.29 111.027C110.237 112.079 108.79 112.737 107.212 112.605C105.634 112.605 104.318 111.947 103.265 110.764L91.1631 97.6089L97.8717 90.9003L111.158 103.003C112.341 104.055 112.868 105.37 112.999 106.949C112.999 108.528 112.341 109.975 111.29 111.027H111.29Z" fill="#50BDFF"/>
</svg>
