<svg width="20" height="21" viewBox="0 0 20 21" fill="none" xmlns="http://www.w3.org/2000/svg">
<path d="M18.9844 0.734375H1.01562C0.583496 0.734375 0.234375 1.0835 0.234375 1.51562V19.4844C0.234375 19.9165 0.583496 20.2656 1.01562 20.2656H18.9844C19.4165 20.2656 19.7656 19.9165 19.7656 19.4844V1.51562C19.7656 1.0835 19.4165 0.734375 18.9844 0.734375ZM16.7285 6.43506H15.1685C13.9453 6.43506 13.7085 7.01611 13.7085 7.8706V9.75293H16.6284L16.2476 12.6997H13.7085V20.2656H10.6641V12.7021H8.11768V9.75293H10.6641V7.58008C10.6641 5.05811 12.2046 3.68359 14.4556 3.68359C15.5347 3.68359 16.46 3.76416 16.731 3.80078V6.43506H16.7285Z" fill="#404040"/>
</svg>
