<svg width="153" height="126" viewBox="0 0 153 126" fill="none" xmlns="http://www.w3.org/2000/svg">
<path d="M12.8794 70.1422L68.3663 122.76C70.558 124.841 73.4655 126 76.4872 126C79.5089 126 82.4165 124.841 84.6082 122.76L140.095 70.1422C148.194 62.6163 152.797 52.0597 152.797 41.0023C152.797 29.9464 148.194 19.3894 140.095 11.8625C131.868 4.24224 121.068 0.00672495 109.854 0.00672495C98.6398 0.00672495 87.8392 4.24189 79.6125 11.8625L76.4868 14.7922L74.0482 12.4921C66.6281 5.33947 56.9601 0.976509 46.6871 0.145417C36.4142 -0.685744 26.17 2.0642 17.6955 7.93036C7.64899 14.9032 1.26149 26.0184 0.294517 38.2113C-0.517439 50.204 4.10202 61.9281 12.8785 70.1422H12.8794ZM12.0537 39.0561C12.7189 30.3618 17.3068 22.4451 24.5198 17.546C29.8701 13.7578 36.2699 11.7375 42.8259 11.7649C51.431 11.7882 59.6988 15.1087 65.9297 21.0449L72.4183 27.1989H72.4169C73.5142 28.2399 74.9666 28.8201 76.478 28.8201C77.988 28.8201 79.4418 28.2399 80.5375 27.1989L87.6943 20.4153L87.6957 20.4167C93.7156 14.8385 101.618 11.7403 109.825 11.7403C118.031 11.7403 125.936 14.8386 131.955 20.4167L131.975 20.4374V20.4361C137.717 25.733 140.984 33.19 140.984 41.0023C140.984 48.8161 137.717 56.2731 131.975 61.57L76.4877 114.107L21.0009 61.57C14.7946 55.7861 11.5099 47.5225 12.0544 39.0561H12.0537Z" fill="#50BDFF"/>
</svg>
