<svg width="24" height="23" viewBox="0 0 24 23" fill="none" xmlns="http://www.w3.org/2000/svg">
<path fill-rule="evenodd" clip-rule="evenodd" d="M7.27603 0.110498C8.49791 0.054248 8.88749 0.041748 12 0.041748C15.1125 0.041748 15.5021 0.0552897 16.7229 0.110498C17.9437 0.165706 18.7771 0.360498 19.5062 0.64279C20.2698 0.931331 20.9625 1.38237 21.5354 1.96571C22.1187 2.53758 22.5687 3.22925 22.8562 3.99383C23.1396 4.723 23.3333 5.55633 23.3896 6.77508C23.4458 7.99904 23.4583 8.38862 23.4583 11.5001C23.4583 14.6126 23.4448 15.0022 23.3896 16.224C23.3344 17.4428 23.1396 18.2761 22.8562 19.0053C22.5687 19.77 22.118 20.4628 21.5354 21.0355C20.9625 21.6188 20.2698 22.0688 19.5062 22.3563C18.7771 22.6397 17.9437 22.8334 16.725 22.8897C15.5021 22.9459 15.1125 22.9584 12 22.9584C8.88749 22.9584 8.49791 22.9449 7.27603 22.8897C6.05728 22.8345 5.22395 22.6397 4.49478 22.3563C3.73012 22.0688 3.0373 21.6181 2.46457 21.0355C1.88164 20.4633 1.43053 19.7708 1.1427 19.0063C0.860407 18.2772 0.666656 17.4438 0.610406 16.2251C0.554156 15.0011 0.541656 14.6115 0.541656 11.5001C0.541656 8.38758 0.555198 7.998 0.610406 6.77716C0.665615 5.55633 0.860407 4.723 1.1427 3.99383C1.43095 3.22933 1.88241 2.53687 2.46561 1.96466C3.03753 1.38185 3.72965 0.930752 4.49374 0.64279C5.22291 0.360498 6.05624 0.166748 7.27499 0.110498H7.27603ZM16.6302 2.173C15.4219 2.11779 15.0594 2.10633 12 2.10633C8.94061 2.10633 8.57811 2.11779 7.36978 2.173C6.25207 2.22404 5.64582 2.4105 5.24166 2.56779C4.70728 2.77612 4.32499 3.023 3.92395 3.42404C3.54379 3.79388 3.25122 4.24413 3.0677 4.74175C2.91041 5.14591 2.72395 5.75216 2.67291 6.86987C2.6177 8.07821 2.60624 8.44071 2.60624 11.5001C2.60624 14.5595 2.6177 14.922 2.67291 16.1303C2.72395 17.248 2.91041 17.8542 3.0677 18.2584C3.25103 18.7553 3.54374 19.2063 3.92395 19.5761C4.29374 19.9563 4.74478 20.249 5.24166 20.4324C5.64582 20.5897 6.25207 20.7761 7.36978 20.8272C8.57811 20.8824 8.93957 20.8938 12 20.8938C15.0604 20.8938 15.4219 20.8824 16.6302 20.8272C17.7479 20.7761 18.3542 20.5897 18.7583 20.4324C19.2927 20.224 19.675 19.9772 20.076 19.5761C20.4562 19.2063 20.7489 18.7553 20.9323 18.2584C21.0896 17.8542 21.276 17.248 21.3271 16.1303C21.3823 14.922 21.3937 14.5595 21.3937 11.5001C21.3937 8.44071 21.3823 8.07821 21.3271 6.86987C21.276 5.75216 21.0896 5.14591 20.9323 4.74175C20.7239 4.20737 20.4771 3.82508 20.076 3.42404C19.7062 3.04391 19.2559 2.75134 18.7583 2.56779C18.3542 2.4105 17.7479 2.22404 16.6302 2.173ZM10.5364 15.0324C11.3538 15.3726 12.2639 15.4185 13.1114 15.1623C13.9588 14.906 14.691 14.3635 15.1829 13.6274C15.6748 12.8913 15.8959 12.0072 15.8084 11.1262C15.7209 10.2452 15.3302 9.42193 14.7031 8.79696C14.3034 8.39745 13.82 8.09155 13.2878 7.90128C12.7557 7.711 12.1879 7.64108 11.6255 7.69656C11.0631 7.75203 10.5199 7.93152 10.0352 8.22209C9.55046 8.51267 9.13618 8.90711 8.82218 9.37701C8.50818 9.84691 8.30227 10.3806 8.21928 10.9396C8.13628 11.4987 8.17827 12.0691 8.34222 12.61C8.50616 13.1509 8.78799 13.6486 9.16741 14.0675C9.54682 14.4864 10.0144 14.8159 10.5364 15.0324ZM7.83541 7.3355C8.38231 6.7886 9.03157 6.35477 9.74613 6.05879C10.4607 5.76281 11.2266 5.61047 12 5.61047C12.7734 5.61047 13.5393 5.76281 14.2538 6.05879C14.9684 6.35477 15.6177 6.7886 16.1646 7.3355C16.7115 7.8824 17.1453 8.53166 17.4413 9.24622C17.7373 9.96078 17.8896 10.7266 17.8896 11.5001C17.8896 12.2735 17.7373 13.0394 17.4413 13.7539C17.1453 14.4685 16.7115 15.1178 16.1646 15.6647C15.0601 16.7692 13.562 17.3897 12 17.3897C10.438 17.3897 8.93992 16.7692 7.83541 15.6647C6.73089 14.5601 6.11038 13.0621 6.11038 11.5001C6.11038 9.93806 6.73089 8.44001 7.83541 7.3355ZM19.1958 6.48758C19.3313 6.35974 19.4398 6.206 19.5149 6.03547C19.5899 5.86494 19.63 5.68109 19.6327 5.4948C19.6354 5.30851 19.6007 5.12357 19.5307 4.95092C19.4607 4.77828 19.3567 4.62145 19.2249 4.48971C19.0932 4.35796 18.9364 4.25399 18.7637 4.18395C18.5911 4.11391 18.4061 4.07922 18.2199 4.08194C18.0336 4.08465 17.8497 4.12472 17.6792 4.19976C17.5087 4.27481 17.3549 4.38331 17.2271 4.51883C16.9784 4.7824 16.8423 5.1325 16.8476 5.4948C16.8529 5.8571 16.9991 6.20308 17.2554 6.45929C17.5116 6.71551 17.8576 6.86178 18.2199 6.86706C18.5822 6.87234 18.9323 6.73622 19.1958 6.48758Z" fill="#404040"/>
</svg>
