<svg width="172" height="63" viewBox="0 0 172 63" fill="none" xmlns="http://www.w3.org/2000/svg">
<path d="M15.8524 50.553C12.9891 50.553 10.5314 49.9324 8.47917 48.6913C6.42696 47.4501 4.84787 45.7358 3.74189 43.5485C2.6482 41.3488 2.10136 38.8173 2.10136 35.9541C2.10136 33.0662 2.66049 30.5225 3.77876 28.3228C4.89703 26.1232 6.47612 24.4089 8.51603 23.18C10.5682 21.9389 13.0014 21.3183 15.8155 21.3183C18.1995 21.3183 20.3008 21.7545 22.1196 22.627C23.9383 23.4872 25.3822 24.71 26.4513 26.2952C27.5204 27.8681 28.1164 29.7114 28.2393 31.8251H21.3454C21.1119 30.4365 20.5282 29.2998 19.5943 28.415C18.6726 27.5179 17.4499 27.0694 15.9261 27.0694C14.6358 27.0694 13.5052 27.4196 12.5344 28.1201C11.5759 28.8082 10.8263 29.8097 10.2856 31.1246C9.7449 32.4272 9.47455 34.0002 9.47455 35.8435C9.47455 37.7114 9.73875 39.3089 10.2672 40.636C10.8079 41.9509 11.5575 42.9647 12.516 43.6775C13.4868 44.3779 14.6235 44.7282 15.9261 44.7282C16.8723 44.7282 17.7202 44.5438 18.4698 44.1752C19.2194 43.7942 19.84 43.2535 20.3316 42.5531C20.8354 41.8403 21.1733 40.9801 21.3454 39.9725H28.2393C28.1041 42.0492 27.5143 43.8864 26.4698 45.4839C25.4375 47.0692 24.0182 48.3103 22.2117 49.2074C20.4176 50.1045 18.2978 50.553 15.8524 50.553ZM33.4927 50V21.687H45.4741C48.9027 21.687 51.6062 22.3567 53.5847 23.6961C55.5754 25.0233 56.5708 26.8973 56.5708 29.3182C56.5708 30.8789 56.0117 32.163 54.8934 33.1707C53.7751 34.1784 52.2329 34.8604 50.2667 35.2168C51.8642 35.3396 53.2406 35.7206 54.3957 36.3596C55.5631 36.9863 56.4602 37.8097 57.0869 38.8296C57.7259 39.8496 58.0454 41.0047 58.0454 42.295C58.0454 43.8803 57.6276 45.2504 56.792 46.4056C55.9564 47.5484 54.7398 48.4332 53.1423 49.0599C51.5447 49.6866 49.6031 50 47.3174 50H33.4927ZM40.276 44.4332H47.3174C48.4849 44.4332 49.3942 44.1567 50.0455 43.6038C50.7091 43.0508 51.0409 42.295 51.0409 41.3365C51.0409 40.2551 50.7091 39.401 50.0455 38.7743C49.3942 38.1476 48.4849 37.8342 47.3174 37.8342H40.276V44.4332ZM40.276 33.3735H45.6216C46.4695 33.3735 47.1946 33.2506 47.7967 33.0048C48.3988 32.759 48.8597 32.4088 49.1792 31.9541C49.511 31.4871 49.6769 30.9403 49.6769 30.3136C49.6769 29.3919 49.3021 28.673 48.5525 28.1569C47.8151 27.6285 46.789 27.3643 45.4741 27.3643H40.276V33.3735Z" fill="#50BDFF"/>
<path d="M98.3909 50L108.566 35.3274L98.4646 21.687H106.796L114.501 32.9311H115.902V21.687H123.165V32.9311H124.529L132.234 21.687H140.566L130.501 35.3274L140.639 50H132.123L124.455 38.7559H123.165V50H115.902V38.7559H114.612L106.907 50H98.3909ZM153.358 50.553C151.564 50.553 149.954 50.2335 148.529 49.5945C147.103 48.9555 145.979 48.0092 145.155 46.7558C144.332 45.4901 143.92 43.9294 143.92 42.0738C143.92 40.4886 144.209 39.1676 144.787 38.1107C145.377 37.0539 146.175 36.206 147.183 35.567C148.191 34.928 149.333 34.4426 150.612 34.1108C151.89 33.779 153.223 33.5455 154.611 33.4103C156.27 33.2383 157.61 33.0785 158.63 32.9311C159.65 32.7836 160.387 32.5563 160.842 32.249C161.309 31.9418 161.542 31.481 161.542 30.8666V30.756C161.542 29.478 161.155 28.4887 160.381 27.7883C159.607 27.0878 158.495 26.7376 157.045 26.7376C155.521 26.7376 154.31 27.0694 153.413 27.733C152.529 28.3966 151.933 29.2076 151.625 30.1661L144.879 29.4288C145.309 27.7084 146.077 26.246 147.183 25.0418C148.289 23.8252 149.678 22.9035 151.349 22.2768C153.032 21.6378 154.931 21.3183 157.045 21.3183C158.519 21.3183 159.951 21.4903 161.34 21.8344C162.74 22.1785 164 22.7253 165.118 23.4749C166.249 24.2246 167.146 25.2199 167.809 26.4611C168.473 27.69 168.805 29.1953 168.805 30.9772V50H161.874V46.0922H161.653C161.223 46.9278 160.633 47.6836 159.883 48.3595C159.146 49.0353 158.23 49.5699 157.137 49.9631C156.055 50.3564 154.796 50.553 153.358 50.553ZM155.349 45.3918C156.602 45.3918 157.696 45.146 158.63 44.6544C159.564 44.1506 160.289 43.4809 160.805 42.6452C161.321 41.8096 161.579 40.8818 161.579 39.8619V36.6914C161.358 36.8511 161.014 37.0048 160.547 37.1522C160.092 37.2874 159.576 37.4103 158.999 37.5209C158.433 37.6192 157.868 37.7114 157.303 37.7974C156.737 37.8834 156.234 37.9571 155.791 38.0186C154.833 38.1537 153.985 38.3749 153.247 38.6822C152.51 38.9771 151.933 39.3888 151.515 39.9172C151.097 40.4333 150.888 41.0907 150.888 41.8895C150.888 43.0323 151.306 43.9048 152.141 44.507C152.989 45.0968 154.058 45.3918 155.349 45.3918Z" fill="#50BDFF"/>
<path d="M64.2122 20.5021C66.8362 20.5021 68.9633 18.375 68.9633 15.7511C68.9633 13.1271 66.8362 11 64.2122 11C61.5883 11 59.4612 13.1271 59.4612 15.7511C59.4612 18.375 61.5883 20.5021 64.2122 20.5021Z" fill="#50BDFF"/>
<path d="M76.8795 20.7001C79.5034 20.7001 81.6305 18.573 81.6305 15.949C81.6305 13.3251 79.5034 11.198 76.8795 11.198C74.2555 11.198 72.1284 13.3251 72.1284 15.949C72.1284 18.573 74.2555 20.7001 76.8795 20.7001Z" fill="#50BDFF"/>
<path d="M90.9416 46.2971C90.1317 47.0642 89.2351 47.7341 88.27 48.2934C87.1537 48.9393 85.9543 49.4297 84.7052 49.751C82.6059 50.2931 80.4107 50.3493 78.2864 49.9154C76.1621 49.4815 74.1648 48.5688 72.4463 47.2469C70.7277 45.925 69.3333 44.2286 68.369 42.2867C67.4047 40.3448 66.8959 38.2086 66.8813 36.0405C66.8813 36.0068 66.8813 35.9751 66.8813 35.9414V21.7814H74.0109V36.0405C74.0369 37.9141 74.7995 39.7022 76.1338 41.0179C77.468 42.3336 79.2666 43.0712 81.1404 43.071C81.4364 43.0716 81.7321 43.0531 82.0257 43.0155C83.7326 42.8016 85.3046 41.9778 86.4518 40.6959C87.599 39.414 88.2441 37.7606 88.268 36.0405H95.3976C95.3853 38.549 94.7074 41.0093 93.433 43.17C92.7528 44.3238 91.9142 45.3764 90.9416 46.2971Z" fill="#50BDFF"/>
</svg>
