<svg width="221" height="81" viewBox="0 0 221 81" fill="none" xmlns="http://www.w3.org/2000/svg">
<path d="M21.2392 64.7077C17.5752 64.7077 14.43 63.9135 11.8038 62.3252C9.17765 60.7369 7.1569 58.5432 5.74159 55.744C4.34201 52.9291 3.64221 49.6896 3.64221 46.0256C3.64221 42.33 4.35773 39.0748 5.78877 36.2599C7.2198 33.445 9.24055 31.2513 11.851 29.6787C14.4772 28.0904 17.5909 27.2963 21.1921 27.2963C24.2428 27.2963 26.9319 27.8546 29.2593 28.9711C31.5867 30.0719 33.4345 31.6366 34.8026 33.6652C36.1708 35.6781 36.9335 38.0369 37.0907 40.7417H28.2686C27.9698 38.9647 27.2229 37.5101 26.0277 36.3779C24.8483 35.2299 23.2836 34.6559 21.3336 34.6559C19.6824 34.6559 18.2356 35.1041 16.9933 36.0004C15.7667 36.8811 14.8074 38.1627 14.1155 39.8454C13.4236 41.5123 13.0776 43.5252 13.0776 45.884C13.0776 48.2743 13.4157 50.3187 14.0919 52.017C14.7839 53.6997 15.7431 54.9971 16.9697 55.9091C18.212 56.8055 19.6667 57.2537 21.3336 57.2537C22.5445 57.2537 23.6295 57.0178 24.5888 56.546C25.5481 56.0585 26.3422 55.3666 26.9712 54.4702C27.616 53.5582 28.0485 52.4574 28.2686 51.1679H37.0907C36.9177 53.8255 36.1629 56.1765 34.8262 58.2208C33.5053 60.2494 31.6889 61.8377 29.3773 62.9857C27.0813 64.1337 24.3686 64.7077 21.2392 64.7077ZM43.8134 64V27.7681H59.146C63.5334 27.7681 66.9931 28.6251 69.5249 30.3392C72.0725 32.0376 73.3462 34.4357 73.3462 37.5337C73.3462 39.5309 72.6307 41.1742 71.1997 42.4637C69.7687 43.7532 67.7951 44.626 65.279 45.082C67.3233 45.2393 69.0846 45.7268 70.5628 46.5445C72.0567 47.3465 73.2047 48.4001 74.0067 49.7054C74.8245 51.0106 75.2333 52.4888 75.2333 54.14C75.2333 56.1686 74.6986 57.922 73.6293 59.4002C72.56 60.8627 71.0031 61.995 68.9588 62.797C66.9144 63.599 64.4298 64 61.5048 64H43.8134ZM52.494 56.8763H61.5048C62.9988 56.8763 64.1625 56.5224 64.9959 55.8148C65.8451 55.1071 66.2697 54.14 66.2697 52.9134C66.2697 51.5295 65.8451 50.4366 64.9959 49.6346C64.1625 48.8326 62.9988 48.4316 61.5048 48.4316H52.494V56.8763ZM52.494 42.7232H59.3347C60.4197 42.7232 61.3476 42.5659 62.1181 42.2514C62.8887 41.9369 63.4784 41.4887 63.8873 40.9069C64.3118 40.3093 64.5241 39.6095 64.5241 38.8075C64.5241 37.6281 64.0445 36.7081 63.0852 36.0476C62.1417 35.3714 60.8286 35.0333 59.146 35.0333H52.494V42.7232Z" fill="#404040"/>
<path d="M126.863 64L139.884 45.2236L126.957 27.7681H137.619L147.479 42.157H149.272V27.7681H158.566V42.157H160.312L170.172 27.7681H180.834L167.954 45.2236L180.928 64H170.03L160.217 49.611H158.566V64H149.272V49.611H147.621L137.761 64H126.863ZM197.204 64.7077C194.908 64.7077 192.848 64.2988 191.024 63.4811C189.2 62.6633 187.761 61.4524 186.707 59.8484C185.654 58.2287 185.127 56.2315 185.127 53.8569C185.127 51.8283 185.496 50.1378 186.235 48.7854C186.99 47.433 188.012 46.3479 189.302 45.5302C190.591 44.7125 192.054 44.0913 193.689 43.6667C195.325 43.2421 197.031 42.9433 198.808 42.7703C200.931 42.5502 202.645 42.3458 203.95 42.157C205.256 41.9683 206.199 41.6774 206.781 41.2843C207.379 40.8911 207.677 40.3014 207.677 39.5151V39.3736C207.677 37.7381 207.182 36.4722 206.191 35.5759C205.201 34.6795 203.777 34.2313 201.922 34.2313C199.972 34.2313 198.423 34.6559 197.275 35.5051C196.143 36.3543 195.38 37.3922 194.987 38.6188L186.353 37.6752C186.904 35.4736 187.887 33.6023 189.302 32.0612C190.717 30.5043 192.494 29.3249 194.633 28.5229C196.787 27.7052 199.217 27.2963 201.922 27.2963C203.809 27.2963 205.641 27.5164 207.418 27.9568C209.211 28.3971 210.822 29.0969 212.253 30.0561C213.7 31.0154 214.848 32.2892 215.697 33.8775C216.547 35.45 216.971 37.3764 216.971 39.6567V64H208.102V58.9992H207.819C207.268 60.0686 206.514 61.0357 205.554 61.9006C204.611 62.7655 203.439 63.4496 202.04 63.9528C200.656 64.456 199.044 64.7077 197.204 64.7077ZM199.752 58.1029C201.356 58.1029 202.755 57.7884 203.95 57.1593C205.145 56.5146 206.073 55.6575 206.734 54.5882C207.394 53.5188 207.724 52.3316 207.724 51.0263V46.9691C207.441 47.1735 207.001 47.3701 206.404 47.5588C205.822 47.7318 205.161 47.8891 204.422 48.0306C203.699 48.1564 202.975 48.2743 202.252 48.3844C201.529 48.4945 200.884 48.5888 200.318 48.6675C199.091 48.8405 198.006 49.1235 197.062 49.5167C196.119 49.8941 195.38 50.4209 194.845 51.0971C194.31 51.7576 194.043 52.5989 194.043 53.6211C194.043 55.0835 194.578 56.2001 195.647 56.9706C196.732 57.7255 198.1 58.1029 199.752 58.1029Z" fill="#404040"/>
<path d="M83.1249 26.2367C86.4827 26.2367 89.2048 23.5146 89.2048 20.1568C89.2048 16.799 86.4827 14.0769 83.1249 14.0769C79.7671 14.0769 77.045 16.799 77.045 20.1568C77.045 23.5146 79.7671 26.2367 83.1249 26.2367Z" fill="#404040"/>
<path d="M99.335 26.4903C102.693 26.4903 105.415 23.7683 105.415 20.4104C105.415 17.0526 102.693 14.3306 99.335 14.3306C95.9772 14.3306 93.2551 17.0526 93.2551 20.4104C93.2551 23.7683 95.9772 26.4903 99.335 26.4903Z" fill="#404040"/>
<path d="M117.33 59.2461C116.294 60.2277 115.146 61.085 113.911 61.8007C112.483 62.6273 110.948 63.2549 109.35 63.666C106.663 64.3597 103.854 64.4316 101.135 63.8764C98.4171 63.3211 95.8611 62.1532 93.6619 60.4615C91.4627 58.7699 89.6783 56.599 88.4442 54.114C87.2102 51.629 86.5592 48.8953 86.5405 46.1208C86.5405 46.0777 86.5405 46.0371 86.5405 45.994V27.8735H95.6641V46.1208C95.6974 48.5185 96.6734 50.8067 98.3808 52.4904C100.088 54.1741 102.39 55.1179 104.788 55.1177C105.167 55.1185 105.545 55.0948 105.921 55.0467C108.105 54.773 110.117 53.7187 111.585 52.0783C113.053 50.4379 113.878 48.322 113.909 46.1208H123.032C123.017 49.3309 122.149 52.4793 120.518 55.2444C119.648 56.7208 118.575 58.0678 117.33 59.2461Z" fill="#404040"/>
</svg>
