<svg width="26" height="16" viewBox="0 0 26 16" fill="none" xmlns="http://www.w3.org/2000/svg">
<path d="M1.5 0.914062C0.947825 0.914062 0.5 1.34251 0.5 1.87105V14.9818C0.5 15.5103 0.94805 15.9388 1.5 15.9388H24.5C25.0522 15.9388 25.5 15.5103 25.5 14.9818V1.87105C25.5 1.34253 25.052 0.914062 24.5 0.914062H1.5ZM15.4313 5.39171C16.0397 5.39171 16.5273 5.52033 16.8383 5.63993L16.6258 6.91915L16.4852 6.85111C16.1955 6.73151 15.8234 6.61641 15.3102 6.62457C14.6958 6.62457 14.4117 6.88686 14.4117 7.13225C14.4081 7.40875 14.7436 7.5911 15.2922 7.86418C16.1976 8.28549 16.6161 8.79633 16.6102 9.46787C16.598 10.6932 15.5271 11.485 13.8773 11.485C13.1735 11.4776 12.4955 11.335 12.1289 11.1703L12.3492 9.84842L12.5516 9.94263C13.067 10.163 13.4008 10.2522 14.0289 10.2522C14.48 10.2522 14.9641 10.0714 14.968 9.67573C14.9709 9.41734 14.7656 9.23312 14.1547 8.94378C13.5594 8.66137 12.7702 8.18831 12.7789 7.34008C12.7882 6.19263 13.8805 5.39171 15.4313 5.39171ZM2.71092 5.57937H5.24453C5.5857 5.59172 5.86115 5.69684 5.95625 6.05114L6.50235 8.74865C6.50242 8.74889 6.50225 8.74987 6.50235 8.75013L6.6664 9.55836L8.20468 5.57937H9.86875L7.3953 11.4035L5.7328 11.405L4.40937 6.70532C5.19683 7.10455 5.86723 7.56646 6.25548 8.20211C6.15538 8.00098 6.02348 7.77393 5.8547 7.55017C5.65815 7.28958 5.23368 6.95313 5.05625 6.80999C4.438 6.31123 3.59838 5.90841 2.6914 5.69526L2.71092 5.57937ZM10.5305 5.5861H12.1578L11.1398 11.4013H9.5125L10.5305 5.5861ZM19.7219 5.5861H20.9547L22.2453 11.4013H20.7656C20.7656 11.4013 20.6188 10.7332 20.5711 10.5295C20.3385 10.5295 18.7119 10.5273 18.5289 10.5273C18.467 10.6847 18.193 11.4013 18.193 11.4013H16.5188L18.8867 6.06909C19.0544 5.69017 19.3402 5.5861 19.7219 5.5861ZM19.843 7.15017C19.7629 7.36647 19.6235 7.71577 19.6328 7.70044C19.6328 7.70044 19.1319 8.97897 19.0008 9.31088L20.3172 9.31011C20.1949 8.75561 20.0725 8.20112 19.95 7.64665L19.843 7.15022V7.15017Z" fill="#404040"/>
</svg>
