<svg width="93" height="146" viewBox="0 0 93 146" fill="none" xmlns="http://www.w3.org/2000/svg">
<path d="M8.23977 145.2H84.7771C89.2384 145.2 92.8591 141.578 92.8591 137.118V25.5764C92.8591 21.115 89.2372 17.4944 84.7771 17.4944H75.3649V11.3708C75.3649 9.91861 74.1921 8.74712 72.7412 8.74712H57.5559C56.3661 3.74377 51.8706 0 46.4999 0C41.1294 0 36.6325 3.74377 35.4438 8.74712H20.2585C18.8064 8.74712 17.6349 9.91983 17.6349 11.3708V17.4944H8.22265C3.76131 17.4944 0.140625 21.1163 0.140625 25.5764V137.102C0.140625 141.564 3.76256 145.184 8.22265 145.184L8.23977 145.2ZM5.40623 25.5736C5.40623 23.9994 6.68388 22.74 8.23977 22.74H17.652V29.2307C17.652 30.6829 18.8247 31.8544 20.2756 31.8544H72.7583C74.2105 31.8544 75.382 30.6816 75.382 29.2307V22.74H84.7942C86.3684 22.74 87.6277 24.0177 87.6277 25.5736V137.099C87.6277 138.674 86.3501 139.933 84.7942 139.933L8.24127 139.934C6.66707 139.934 5.40773 138.656 5.40773 137.101L5.40651 25.5748L5.40623 25.5736ZM46.5177 5.2459C48.9498 5.2459 51.0659 6.68099 52.0456 8.74443H40.9895C41.9694 6.67968 44.0854 5.2459 46.5174 5.2459H46.5177ZM37.7706 13.993H70.1349V26.606H22.9005V13.993H37.7712H37.7706Z" fill="#50BDFF"/>
<path d="M16.8651 74.0324H32.3996C33.7822 74.0324 34.9366 72.9658 35.0233 71.5832L36.6499 46.5318C36.7024 45.8142 36.44 45.0967 35.9507 44.572C35.4613 44.0473 34.7609 43.7495 34.0433 43.7495H15.2714C14.5538 43.7495 13.8546 44.0473 13.364 44.572C12.8747 45.0967 12.6124 45.8143 12.6648 46.5318L14.2915 71.5832C14.3793 72.9658 15.5337 74.0324 16.9151 74.0324H16.8651ZM29.9332 68.7838H19.3311L18.0535 48.9806H31.2266L29.949 68.7838H29.9332Z" fill="#50BDFF"/>
<path d="M57.9239 51.3962H77.9723C79.4245 51.3962 80.596 50.2235 80.596 48.7726C80.596 47.3204 79.4233 46.1489 77.9723 46.1489H57.9239C56.4718 46.1489 55.3003 47.3216 55.3003 48.7726C55.3003 50.2247 56.473 51.3962 57.9239 51.3962Z" fill="#50BDFF"/>
<path d="M46.8336 62.7146H77.9562C79.4083 62.7146 80.5798 61.5418 80.5798 60.0909C80.5798 58.6388 79.4071 57.4673 77.9562 57.4673H46.8336C45.3815 57.4673 44.21 58.64 44.21 60.0909C44.21 61.5431 45.3827 62.7146 46.8336 62.7146Z" fill="#50BDFF"/>
<path d="M46.8336 74.0324H77.9562C79.4083 74.0324 80.5798 72.8597 80.5798 71.4088C80.5798 69.9566 79.4071 68.7852 77.9562 68.7852H46.8336C45.3815 68.7852 44.21 69.9579 44.21 71.4088C44.21 72.8609 45.3827 74.0324 46.8336 74.0324Z" fill="#50BDFF"/>
<path d="M34.0287 92.6294H21.9405C20.4884 92.6294 19.3169 93.8021 19.3169 95.253C19.3169 96.7052 20.4896 97.8767 21.9405 97.8767H34.0287C35.4809 97.8767 36.6524 96.704 36.6524 95.253C36.6524 93.8009 35.4797 92.6294 34.0287 92.6294Z" fill="#50BDFF"/>
<path d="M15.2379 109.196H34.0098C35.462 109.196 36.6335 108.023 36.6335 106.572C36.6335 105.12 35.4608 103.949 34.0098 103.949H15.2379C13.7857 103.949 12.6143 105.121 12.6143 106.572C12.6143 108.025 13.787 109.196 15.2379 109.196V109.196Z" fill="#50BDFF"/>
<path d="M15.2379 120.533H34.0098C35.462 120.533 36.6335 119.36 36.6335 117.909C36.6335 116.457 35.4608 115.286 34.0098 115.286H15.2379C13.7857 115.286 12.6143 116.458 12.6143 117.909C12.6143 119.361 13.787 120.533 15.2379 120.533V120.533Z" fill="#50BDFF"/>
<path d="M62.2444 122.545C68.6473 122.545 80.5952 122.545 80.5952 113.08C80.5952 105.225 72.1277 95.6558 62.2444 95.6558C52.3598 95.6558 43.8936 105.243 43.8936 113.08C43.8936 122.545 55.8243 122.545 62.2444 122.545ZM75.3479 113.08C75.3479 115.617 73.1257 117.296 62.2444 117.296C51.3631 117.296 49.1409 115.617 49.1409 113.08C49.1409 108.375 55.1411 100.904 62.2444 100.904C69.3464 100.904 75.3479 108.392 75.3479 113.08Z" fill="#50BDFF"/>
</svg>
