<svg width="113" height="146" viewBox="0 0 113 146" fill="none" xmlns="http://www.w3.org/2000/svg">
<path fill-rule="evenodd" clip-rule="evenodd" d="M43.0282 109.623C42.6799 109.623 42.3271 109.639 41.9685 109.662H41.965C37.8458 109.926 34.5677 111.88 32.3024 114.338C30.0371 116.797 28.543 119.649 26.9753 122.344C23.84 127.736 20.9677 132.391 12.9384 134.068L12.9372 134.069C11.481 134.375 10.4098 135.617 10.3225 137.103C10.2363 138.588 11.1546 139.948 12.566 140.42C18.9759 142.565 28.0168 145.069 36.8058 145.14C43.9386 145.198 51.3162 143.432 56.1698 138.169C61.0235 143.433 68.4011 145.198 75.5339 145.14C84.3241 145.069 93.3649 142.565 99.7748 140.42H99.7737C101.185 139.948 102.105 138.588 102.017 137.103C101.93 135.617 100.859 134.375 99.4024 134.069C91.3731 132.391 88.5008 127.737 85.3655 122.346C83.7978 119.649 82.3037 116.798 80.0384 114.339C77.773 111.881 74.495 109.927 70.3746 109.664V109.662H70.3723C64.6348 109.302 60.2272 111.448 57.4455 113.799C56.9777 114.194 56.5559 114.594 56.1709 114.99C55.7858 114.594 55.364 114.194 54.8951 113.799C52.2872 111.596 48.2507 109.571 43.0281 109.624L43.0282 109.623ZM43.4592 116.212C46.8128 116.246 49.0428 117.484 50.6402 118.833C51.5218 119.578 52.1781 120.37 52.5884 120.962C52.778 121.235 52.9079 121.458 52.9826 121.599C52.963 121.5 52.9424 121.394 52.9125 121.199V121.2C53.1584 122.783 54.5078 123.96 56.1099 123.989C57.7121 124.019 59.1028 122.892 59.4062 121.318C59.3878 121.433 59.3706 121.53 59.3568 121.6C59.4315 121.459 59.5625 121.236 59.751 120.963C60.1613 120.37 60.8187 119.578 61.7003 118.834C63.4622 117.345 65.9931 115.992 69.955 116.241H69.9584C72.433 116.4 73.7305 117.221 75.1925 118.806C76.6545 120.392 78.0383 122.854 79.6693 125.659C81.7795 129.288 84.5403 133.535 89.0123 136.668C84.6138 137.723 79.8717 138.515 75.4812 138.55C67.9415 138.611 62.0694 136.785 59.1109 130.936C58.5501 129.827 57.4122 129.128 56.1698 129.128C54.9273 129.128 53.7895 129.827 53.2286 130.936C50.2701 136.785 44.3981 138.611 36.8584 138.55C32.4678 138.513 27.7257 137.723 23.3272 136.668C27.8004 133.535 30.5612 129.288 32.6714 125.659C34.3035 122.854 35.6873 120.392 37.1482 118.806C38.609 117.221 39.9078 116.4 42.3811 116.241H42.3846C42.7546 116.218 43.1133 116.208 43.4592 116.212V116.212Z" fill="#50BDFF"/>
<path fill-rule="evenodd" clip-rule="evenodd" d="M25.5917 0.142751C11.6098 0.142751 0.140625 11.4098 0.140625 25.3043C0.140625 37.6657 9.22976 47.9717 21.1174 50.059V99.1282L21.1162 99.1271C21.1162 100.948 22.592 102.422 24.4113 102.423H87.9303C89.7497 102.422 91.2254 100.948 91.2254 99.1271V50.0579C103.111 47.9695 112.185 37.661 112.185 25.3032C112.185 11.4122 100.731 0.141602 86.7498 0.141602C81.0296 0.141602 75.7172 2.01389 71.4576 5.1871C67.1948 2.01733 61.8915 0.141602 56.1714 0.141602C50.4512 0.141602 45.1388 2.01389 40.878 5.1871C36.6152 2.01733 31.312 0.141602 25.5918 0.141602L25.5917 0.142751ZM25.5917 6.73297C30.674 6.73297 35.229 8.68686 38.6218 11.882C39.893 13.0774 41.8758 13.0751 43.1445 11.8763C46.5143 8.69035 51.0888 6.73193 56.1702 6.73193C61.2524 6.73193 65.8075 8.68582 69.2003 11.881H69.2014C70.4714 13.0775 72.4553 13.0752 73.7241 11.8764C77.0939 8.69046 81.6672 6.73205 86.7497 6.73205C97.2179 6.73205 105.593 15.0153 105.593 25.3031C105.593 35.2347 97.7467 43.3202 87.7613 43.8283H87.7625C86.0097 43.918 84.6339 45.365 84.6339 47.1202V95.8304H72.9702V83.4635C72.9828 82.582 72.6415 81.7315 72.022 81.1039C71.4025 80.4752 70.5566 80.1212 69.675 80.1212C68.7923 80.1212 67.9475 80.4752 67.328 81.1039C66.7085 81.7315 66.3672 82.582 66.3798 83.4635V95.8292H59.4586V75.7478L59.4574 75.749C59.4701 74.8674 59.1287 74.0169 58.5092 73.3882C57.8897 72.7607 57.0449 72.4067 56.1622 72.4067C55.2807 72.4067 54.4348 72.7607 53.8152 73.3882C53.1957 74.0169 52.8544 74.8674 52.867 75.749V95.8304H45.9458V83.4635C45.9573 82.5819 45.6159 81.7314 44.9964 81.1039C44.3769 80.4752 43.5321 80.1212 42.6494 80.1212C41.7679 80.1212 40.922 80.4752 40.3025 81.1039C39.6841 81.7314 39.3416 82.5819 39.3542 83.4635V95.8292H27.7068V47.119L27.7079 47.1201C27.7068 45.3651 26.3321 43.918 24.5793 43.8283C14.5948 43.3202 6.73117 35.2311 6.73117 25.3031C6.73117 15.0188 15.1236 6.73199 25.5921 6.73199L25.5917 6.73297Z" fill="#50BDFF"/>
</svg>
