<svg width="146" height="145" viewBox="0 0 146 145" fill="none" xmlns="http://www.w3.org/2000/svg">
<path d="M131.642 38.6658H59.4647L52.053 22.5548H53.5039C55.2762 22.5548 56.7258 21.1051 56.7258 19.3329V3.22191C56.7258 1.44964 55.2761 0 53.5039 0H14.8375C13.0652 0 11.6156 1.44973 11.6156 3.22191V19.3329C11.6156 21.1052 13.0653 22.5548 14.8375 22.5548H16.2872L0.660703 56.7102C0.660703 56.8709 0.660704 56.8709 0.5 57.0327V57.3552V57.6778V58.0003V132.111C0.5 133.883 1.94973 135.333 3.72191 135.333H58.8215C61.8829 141.133 68.0054 145 74.9325 145H78.3164C80.8944 145 83.4725 144.517 85.8886 143.388C88.3048 144.355 90.7222 145 93.4608 145H96.8447C103.934 145 110.056 141.133 112.956 135.333H131.966C133.738 135.333 135.188 133.883 135.188 132.111L135.187 65.7307C141.148 64.281 145.658 58.8036 145.658 52.3586C145.337 44.7864 139.215 38.6636 131.642 38.6636L131.642 38.6658ZM18.0594 6.44383H50.2814V16.111H18.0594V6.44383ZM61.5591 102.465C58.4977 105.687 56.7255 109.877 56.7255 114.388V127.277V128.888L6.78142 128.887V76.2044L14.8369 72.3375L15.1595 72.1768C18.8647 70.4045 22.8924 69.7606 26.9202 70.4045C29.015 70.727 30.948 71.2103 32.881 72.1768C40.2926 75.7212 48.6695 75.7212 56.0811 72.1768L61.7205 69.438V102.466L61.5591 102.465ZM61.5591 62.349L53.5036 66.2159L53.1811 66.3766C49.4758 68.1489 45.4481 68.7928 41.4203 68.1489C39.3256 67.8264 37.3926 67.3431 35.4595 66.3766C28.0479 62.8322 19.6711 62.8322 12.2594 66.3766L6.78081 68.9547V58.6436L7.10335 57.9997L23.3752 22.5555H44.9636L61.2355 57.9997L61.558 58.6436L61.5591 62.349ZM108.281 127.276C108.281 133.56 102.964 138.554 96.5203 138.554H93.1364C91.0416 138.554 88.9478 138.071 87.1756 136.942C86.6924 136.62 86.2091 136.62 85.564 136.62C84.9201 136.62 84.4357 136.78 83.9525 136.942C82.1802 137.909 80.0856 138.554 77.9917 138.554H74.6078C68.164 138.554 62.8471 133.56 62.8471 127.276V114.387C62.8471 108.104 68.1637 103.11 74.6078 103.11H77.9917C79.4414 103.11 80.8911 103.432 82.342 103.916V107.943C82.342 109.716 83.7917 111.165 85.5639 111.165C87.3361 111.165 88.7858 109.716 88.7858 107.943V103.916C90.0748 103.432 91.5245 103.11 93.136 103.11H96.5199C102.964 103.11 108.281 108.104 108.281 114.387L108.281 127.276ZM131.642 59.6101C129.869 59.6101 128.42 61.0599 128.42 62.8321V128.887H114.726V127.276V114.387C114.726 104.559 106.51 96.6638 96.5203 96.6638H93.1364C91.6867 96.6638 90.237 96.8245 88.7861 97.1471L88.7873 93.443C88.7873 89.8986 91.6867 86.9992 95.2311 86.9992C97.0033 86.9992 98.453 85.5494 98.453 83.7772C98.453 82.0051 97.0033 80.5553 95.2311 80.5553C88.142 80.5553 82.342 86.3553 82.342 93.4444V97.1497C80.8923 96.8271 79.4426 96.6664 77.9917 96.6664H74.6078C72.1917 96.6664 69.7743 97.1497 67.6807 97.9554V58.0002V57.6776V57.3551V57.0326C67.6807 56.8718 67.6807 56.8719 67.52 56.71L62.365 45.1112H131.642C135.67 45.1112 138.892 48.3332 138.892 52.3609C138.892 56.3887 135.669 59.6106 131.641 59.6106L131.642 59.6101ZM34.1701 83.7766C26.1146 83.7766 19.6708 90.2205 19.6708 98.276C19.6708 106.331 26.1146 112.775 34.1701 112.775C42.2256 112.775 48.6694 106.331 48.6694 98.276C48.6694 90.2216 42.2256 83.7766 34.1701 83.7766ZM34.1701 106.333C29.659 106.333 26.1146 102.788 26.1146 98.2771C26.1146 93.766 29.659 90.2216 34.1701 90.2216C38.6812 90.2216 42.2256 93.766 42.2256 98.2771C42.2256 102.788 38.6812 106.333 34.1701 106.333Z" fill="#50BDFF"/>
</svg>
