<svg width="115" height="115" viewBox="0 0 115 115" fill="none" xmlns="http://www.w3.org/2000/svg">
<path d="M57.5034 0.780802C56.0537 0.776297 55.7876 1.04432 55.3795 1.1986C54.9714 1.35963 54.6433 1.50153 54.2928 1.67382C53.5904 2.01841 52.8373 2.43621 51.9907 2.92158C50.2963 3.8912 48.2591 5.12881 46.2312 6.38225C44.2031 7.63454 42.1896 8.90369 40.6237 9.87319C39.8402 10.3574 39.1626 10.7674 38.679 11.0545C38.5178 11.1446 38.3791 11.2156 38.2348 11.291C38.529 11.2009 38.7015 11.148 38.2405 11.3271C37.7692 11.5208 37.9474 11.4352 38.2348 11.291C38.0736 11.3451 37.9203 11.3991 37.732 11.434C37.1864 11.5771 36.4153 11.7494 35.5168 11.9543C33.7221 12.3654 31.4089 12.88 29.0842 13.4138C26.7596 13.9465 24.4352 14.4994 22.548 15.0005C21.6045 15.2517 20.777 15.4837 20.0352 15.7326C19.6655 15.8587 19.3171 15.9769 18.918 16.1526C18.5189 16.3317 18.1469 16.3316 17.1199 17.3463C16.0918 18.3677 16.0918 18.7393 15.9148 19.1357C15.7355 19.5321 15.6126 19.879 15.4875 20.2484C15.2338 20.9883 14.9971 21.8137 14.7401 22.754C14.2283 24.6369 13.6601 26.9556 13.1145 29.2732C12.5666 31.592 12.0367 33.8995 11.6162 35.69C11.4065 36.5853 11.2205 37.3534 11.083 37.8996C11.0289 38.0899 10.9748 38.2464 10.9398 38.4018C11.083 38.1169 11.1765 37.9367 10.9759 38.4075C10.7831 38.8669 10.8496 38.6946 10.9398 38.4018C10.8677 38.5448 10.7966 38.6822 10.7008 38.8433C10.41 39.3241 9.99623 39.9987 9.50584 40.778C8.52619 42.3354 7.24441 44.341 5.9783 46.359C4.71118 48.3782 3.46094 50.4041 2.48135 52.0923C1.99096 52.9358 1.56819 53.6858 1.21873 54.3851C1.03948 54.7354 0.894054 55.062 0.737345 55.4674C0.576137 55.8728 0.311199 56.1385 0.306697 57.5868C0.302188 59.035 0.569369 59.3008 0.724935 59.7084C0.886144 60.1161 1.0282 60.4438 1.20066 60.794C1.54563 61.4956 1.96386 62.2479 2.44975 63.0936C3.42039 64.7862 4.65932 66.8213 5.91409 68.8471C7.1677 70.873 8.43933 72.8844 9.40873 74.4486C9.89349 75.2313 10.3038 75.9081 10.5913 76.3913C10.6815 76.5523 10.7525 76.6908 10.8281 76.8327C10.7379 76.5399 10.6849 76.3676 10.8641 76.8271C11.058 77.2978 10.9724 77.1199 10.8281 76.8327C10.8822 76.9937 10.9363 77.1469 10.9712 77.3372C11.1144 77.8822 11.2869 78.6525 11.4921 79.5501C11.9036 81.3429 12.4187 83.6537 12.9531 85.9759C13.4863 88.298 14.0398 90.62 14.5415 92.5051C14.7929 93.4477 15.0263 94.2743 15.2743 95.0153C15.4006 95.3846 15.5201 95.7326 15.697 96.1313C15.8763 96.5299 15.8763 96.9016 16.892 97.9275C17.9145 98.9545 18.2865 98.9546 18.6833 99.1314C19.0802 99.3104 19.4274 99.4332 19.7972 99.5582C20.5378 99.8116 21.3642 100.048 22.3055 100.305C24.1904 100.816 26.5115 101.384 28.8316 101.929C31.1528 102.476 33.4627 103.005 35.2552 103.425C36.1515 103.635 36.9203 103.821 37.4671 103.958C37.6576 104.012 37.8143 104.066 37.9699 104.101C37.6846 103.958 37.5043 103.865 37.9755 104.065C38.4355 104.258 38.263 104.191 37.9699 104.101C38.113 104.173 38.2506 104.244 38.4118 104.34C38.8931 104.63 39.5684 105.044 40.3485 105.533C41.9076 106.512 43.9142 107.793 45.9355 109.057C47.9568 110.323 49.9848 111.573 51.6749 112.552C52.5193 113.042 53.27 113.464 53.9701 113.813C54.3207 113.992 54.6477 114.137 55.0535 114.294C55.4593 114.455 55.7254 114.72 57.1752 114.724C58.6249 114.729 58.891 114.462 59.2991 114.306C59.7072 114.145 60.0352 114.003 60.3858 113.831C61.0882 113.486 61.8412 113.069 62.6879 112.583C64.3822 111.614 66.4183 110.376 68.4463 109.123C70.4743 107.87 72.489 106.601 74.0537 105.632C74.8372 105.147 75.5148 104.737 75.9973 104.449C76.1585 104.359 76.2972 104.288 76.4392 104.213C76.1461 104.303 75.9736 104.356 76.4335 104.177C76.9048 103.983 76.7267 104.069 76.4392 104.213C76.6004 104.159 76.7537 104.105 76.9442 104.07C77.4899 103.927 78.261 103.754 79.1595 103.549C80.9542 103.138 83.2674 102.624 85.592 102.09C87.9166 101.557 90.2411 101.004 92.1282 100.503C93.0718 100.252 93.8993 100.02 94.6411 99.7712C95.0108 99.645 95.3592 99.5257 95.7582 99.3511C96.1573 99.1721 96.5294 99.1721 97.5575 98.1574C98.5856 97.136 98.5856 96.7644 98.7626 96.368C98.9419 95.9716 99.0648 95.6247 99.1899 95.2553C99.4436 94.5155 99.6803 93.69 99.9373 92.7497C100.449 90.8668 101.017 88.5481 101.563 86.2305C102.111 83.9118 102.641 81.6043 103.061 79.8137C103.271 78.9184 103.457 78.1504 103.594 77.6042C103.649 77.4138 103.703 77.2573 103.738 77.1019C103.594 77.3868 103.501 77.567 103.701 77.0963C103.894 76.6368 103.845 76.8091 103.738 77.1019C103.81 76.9589 103.881 76.8215 103.977 76.6605C104.267 76.1796 104.681 75.505 105.172 74.7258C106.151 73.1683 107.433 71.1627 108.699 69.1447C109.966 67.1255 111.216 65.0996 112.197 63.4114C112.688 62.5679 113.11 61.8179 113.459 61.1186C113.638 60.7684 113.783 60.4418 113.94 60.0364C114.101 59.631 114.366 59.3652 114.371 57.9169C114.375 56.4687 114.108 56.2029 113.952 55.7953C113.791 55.3876 113.649 55.0599 113.477 54.7097C113.132 54.0081 112.714 53.2558 112.228 52.4101C111.257 50.7175 110.018 48.6836 108.763 46.6566C107.51 44.6307 106.238 42.6182 105.269 41.0551C104.784 40.2724 104.374 39.5956 104.086 39.1136C103.996 38.9526 103.925 38.814 103.849 38.6699C103.94 38.9638 103.993 39.1361 103.813 38.6755C103.619 38.2048 103.705 38.3827 103.849 38.6699C103.795 38.5088 103.741 38.3557 103.706 38.1654C103.563 37.6203 103.391 36.85 103.185 35.9525C102.774 34.1596 102.259 31.8489 101.724 29.5267C101.191 27.2046 100.638 24.8838 100.136 22.9983C99.8845 22.0557 99.6523 21.2292 99.4031 20.4882C99.2768 20.1188 99.1585 19.7708 98.9804 19.3721C98.8011 18.9735 98.8011 18.6018 97.7854 17.5759C96.7629 16.5489 96.3909 16.5489 95.9941 16.3721C95.5972 16.193 95.2489 16.0703 94.8802 15.9453C94.1396 15.6919 93.3132 15.4554 92.3719 15.1986C90.487 14.6874 88.1659 14.1198 85.8458 13.5747C83.5246 13.0274 81.2147 12.4981 79.4222 12.0781C78.526 11.8686 77.7571 11.6828 77.2104 11.5454C77.0221 11.4914 76.8631 11.4373 76.7076 11.4024C76.9928 11.5454 77.1709 11.6389 76.7008 11.4384C76.2408 11.2459 76.4133 11.3123 76.7076 11.4024C76.5644 11.3303 76.4257 11.2594 76.2657 11.1614C75.7843 10.8709 75.109 10.4576 74.3289 9.96769C72.7698 8.98908 70.7621 7.70865 68.7419 6.44388C66.7217 5.1781 64.6926 3.92919 63.0025 2.94948C62.1582 2.45961 61.4074 2.03729 60.7084 1.68932C60.3578 1.51027 60.0309 1.36499 59.625 1.20845C59.2192 1.04741 58.9532 0.782757 57.5034 0.778259L57.5034 0.780802ZM57.4673 10.7529C57.7368 10.8959 57.9025 10.986 58.2238 11.1729C59.722 12.0412 61.706 13.2608 63.6901 14.503C65.6743 15.7452 67.665 17.0109 69.2647 18.0144C70.064 18.5167 70.7663 18.9513 71.3413 19.2993C71.9162 19.6462 71.9985 19.7768 73.03 20.207C74.0615 20.6372 74.216 20.5978 74.8665 20.7633C75.5169 20.9243 76.3219 21.1237 77.2418 21.3399C79.0816 21.7701 81.3814 22.2949 83.6596 22.8309C85.9391 23.367 88.2005 23.9154 89.8711 24.3692C90.2308 24.4593 90.4044 24.5302 90.7009 24.6203C90.7911 24.9165 90.844 25.0911 90.9466 25.4514C91.3919 27.1238 91.9263 29.3861 92.4505 31.6656C92.9747 33.9449 93.4831 36.2457 93.9059 38.0847C94.1156 39.0059 94.3083 39.8089 94.4684 40.4609C94.6296 41.1118 94.5947 41.265 95.0141 42.2976C95.438 43.3292 95.5687 43.4137 95.9126 43.9902C96.2553 44.5668 96.6882 45.2695 97.1865 46.0714C98.1819 47.6761 99.4378 49.6716 100.669 51.6617C101.9 53.6504 103.109 55.6404 103.97 57.1415C104.155 57.4647 104.239 57.6292 104.387 57.9006C104.244 58.1697 104.153 58.3352 103.966 58.6562C103.097 60.1528 101.876 62.1348 100.633 64.1168C99.3892 66.0988 98.1221 68.0874 97.1176 69.6854C96.6148 70.4839 96.1796 71.1855 95.8313 71.7598C95.4841 72.3341 95.3533 72.4163 94.9227 73.4468C94.492 74.4772 94.5315 74.6315 94.3657 75.2813C94.2045 75.9311 94.005 76.7351 93.7886 77.6541C93.3579 79.4919 92.8326 81.7882 92.296 84.0651C91.7593 86.3411 91.2103 88.6011 90.756 90.2701C90.6658 90.6304 90.5948 90.8027 90.5046 91.0989C90.2081 91.189 90.0334 91.2419 89.6726 91.3444C87.9985 91.7892 85.7338 92.3241 83.4519 92.8467C81.1702 93.3703 78.8669 93.8782 77.0248 94.3005C76.1026 94.51 75.2988 94.7026 74.6461 94.8636C73.9945 95.0246 73.8412 94.9897 72.8074 95.4086C71.7748 95.8321 71.6902 95.9627 71.113 96.3062C70.5358 96.6485 69.8324 97.081 69.0297 97.5787C67.4232 98.5731 65.4257 99.8277 63.4335 101.057C61.4426 102.288 59.4505 103.495 57.9478 104.355C57.6242 104.539 57.4596 104.622 57.188 104.771C56.9185 104.628 56.7528 104.538 56.4315 104.351C54.9333 103.483 52.9493 102.264 50.9652 101.022C48.981 99.7803 46.9903 98.5146 45.3906 97.5111C44.5913 97.0088 43.889 96.5741 43.314 96.2262C42.7391 95.8793 42.6568 95.7487 41.6253 95.3185C40.5938 94.8883 40.4393 94.9277 39.7888 94.7622C39.1384 94.6011 38.3334 94.4018 37.4135 94.1856C35.5737 93.7554 33.275 93.2306 30.9957 92.6946C28.7173 92.1585 26.456 91.6101 24.7841 91.1563C24.4234 91.0662 24.2509 90.9952 23.9544 90.9051C23.8642 90.609 23.8113 90.4344 23.7087 90.074C23.2634 88.4028 22.729 86.1394 22.2048 83.8599C21.6806 81.5803 21.1722 79.2798 20.7494 77.4396C20.5397 76.5184 20.347 75.7155 20.1857 75.0634C20.0245 74.4125 20.0595 74.2593 19.6401 73.2267C19.2162 72.1951 19.0855 72.1107 18.7416 71.5341C18.3989 70.9575 17.966 70.2548 17.4677 69.4529C16.4723 67.8482 15.2164 65.8527 13.9855 63.8627C12.7533 61.8739 11.5448 59.8839 10.6845 58.3828C10.4996 58.0596 10.4173 57.8952 10.2674 57.6238C10.4105 57.3546 10.5007 57.1891 10.6879 56.8681C11.557 55.3715 12.778 53.3896 14.0215 51.4076C15.265 49.4255 16.532 47.4369 17.5366 45.8389C18.0394 45.0405 18.4745 44.3389 18.8229 43.7645C19.1701 43.1902 19.3009 43.108 19.7315 42.0776C20.1622 41.0471 20.1227 40.8951 20.2884 40.2431C20.4496 39.5933 20.6492 38.7892 20.8656 37.8703C21.2963 36.0324 21.8216 33.7361 22.3582 31.4592C22.8948 29.1821 23.4438 26.9232 23.8982 25.2543C23.9883 24.895 24.0594 24.7216 24.1496 24.4254C24.446 24.3353 24.6208 24.2824 24.9815 24.1799C26.6556 23.7351 28.9195 23.2002 31.2023 22.6776C33.484 22.154 35.7872 21.6461 37.6294 21.2238C38.5515 21.0143 39.3553 20.8218 40.0081 20.6607C40.6597 20.4997 40.813 20.5346 41.8468 20.1157C42.8794 19.6922 42.9639 19.5616 43.5411 19.2181C44.1183 18.8758 44.8218 18.4433 45.6245 17.9456C47.2309 16.9512 49.2285 15.6967 51.2207 14.467C53.2116 13.2373 55.2037 12.0289 56.7064 11.1695C57.0299 10.9848 57.1945 10.9026 57.4662 10.7529H57.4673ZM77.8756 37.4223H77.8767C76.6175 37.4944 75.4394 38.0642 74.6006 39.0045L51.4281 64.9835L41.4039 56.437H41.4028C40.4445 55.6195 39.2 55.2163 37.9431 55.3154C36.6861 55.4145 35.5204 56.008 34.7021 56.9664C33.8836 57.9247 33.48 59.168 33.5793 60.4236C33.6785 61.6792 34.2726 62.8436 35.2319 63.6611L48.7961 75.2254C49.7419 76.0317 50.9662 76.436 52.2062 76.3515C53.4461 76.2671 54.604 75.7006 55.4316 74.7738L81.6998 45.3246C82.5386 44.3843 82.9681 43.1489 82.8959 41.8922C82.8226 40.6343 82.2533 39.4575 81.312 38.6195C80.3707 37.7817 79.1351 37.3526 77.8759 37.4247L77.8756 37.4223Z" fill="#50BDFF"/>
</svg>
