<svg width="983" height="683" viewBox="0 0 983 683" fill="none" xmlns="http://www.w3.org/2000/svg">
<g clip-path="url(#clip0_2083_39)">
<path d="M158.756 439.412L138.236 439.412L138.236 422.852L142.592 422.852L142.592 435.344L146.336 435.344L146.336 422.852L150.692 422.852L150.692 435.344L154.4 435.344L154.4 422.852L158.756 422.852L158.756 439.412ZM165.607 431.06C165.607 432.764 165.943 434.072 166.615 434.984C167.287 435.896 168.223 436.352 169.423 436.352C170.623 436.352 171.559 435.896 172.231 434.984C172.903 434.072 173.239 432.764 173.239 431.06C173.239 429.38 172.903 428.084 172.231 427.172C171.559 426.26 170.623 425.804 169.423 425.804C168.223 425.804 167.287 426.26 166.615 427.172C165.943 428.084 165.607 429.38 165.607 431.06ZM161.215 431.06C161.215 428.204 161.947 425.984 163.411 424.4C164.899 422.816 166.903 422.024 169.423 422.024C171.775 422.024 173.731 422.828 175.291 424.436C176.851 426.044 177.631 428.252 177.631 431.06C177.631 433.94 176.887 436.184 175.399 437.792C173.911 439.376 171.907 440.168 169.387 440.168C166.891 440.168 164.899 439.376 163.411 437.792C161.947 436.184 161.215 433.94 161.215 431.06ZM180.072 422.852L184.428 422.852L184.428 430.088L191.088 422.852L196.38 422.852L189.792 430.484L196.38 439.412L191.16 439.412L186.696 433.076L184.428 435.488L184.428 439.412L180.072 439.412L180.072 422.852ZM202.275 431.06C202.275 432.764 202.611 434.072 203.283 434.984C203.955 435.896 204.891 436.352 206.091 436.352C207.291 436.352 208.227 435.896 208.899 434.984C209.571 434.072 209.907 432.764 209.907 431.06C209.907 429.38 209.571 428.084 208.899 427.172C208.227 426.26 207.291 425.804 206.091 425.804C204.891 425.804 203.955 426.26 203.283 427.172C202.611 428.084 202.275 429.38 202.275 431.06ZM197.883 431.06C197.883 428.204 198.615 425.984 200.079 424.4C201.567 422.816 203.571 422.024 206.091 422.024C208.443 422.024 210.399 422.828 211.959 424.436C213.519 426.044 214.299 428.252 214.299 431.06C214.299 433.94 213.555 436.184 212.067 437.792C210.579 439.376 208.575 440.168 206.055 440.168C203.559 440.168 201.567 439.376 200.079 437.792C198.615 436.184 197.883 433.94 197.883 431.06ZM221.096 435.776L225.524 435.776C227.444 435.776 228.404 435.26 228.404 434.228C228.404 433.316 227.444 432.86 225.524 432.86L221.096 432.86L221.096 435.776ZM221.096 429.26L225.524 429.26C227.18 429.26 228.008 428.792 228.008 427.856C228.008 427.376 227.816 427.028 227.432 426.812C227.048 426.572 226.412 426.452 225.524 426.452L221.096 426.452L221.096 429.26ZM228.296 430.808L228.296 431.276C229.64 431.492 230.72 431.936 231.536 432.608C232.352 433.256 232.76 434.036 232.76 434.948C232.76 436.316 232.148 437.408 230.924 438.224C229.7 439.016 228.032 439.412 225.92 439.412L216.74 439.412L216.74 422.852L225.92 422.852C228.008 422.852 229.604 423.236 230.708 424.004C231.836 424.772 232.4 425.816 232.4 427.136C232.4 428.072 232.04 428.876 231.32 429.548C230.6 430.22 229.592 430.64 228.296 430.808ZM239.013 434.552C239.013 435.152 239.241 435.596 239.697 435.884C240.153 436.172 240.753 436.316 241.497 436.316C242.529 436.316 243.369 436.016 244.017 435.416C244.689 434.816 245.025 434.048 245.025 433.112L245.709 433.112C245.709 435.224 245.181 436.928 244.125 438.224C243.069 439.52 241.677 440.168 239.949 440.168C238.413 440.168 237.141 439.724 236.133 438.836C235.149 437.924 234.657 436.76 234.657 435.344C234.657 434.048 235.041 433.028 235.809 432.284C236.577 431.516 237.777 430.892 239.409 430.412L245.025 428.864L245.025 431.672L240.921 432.824C239.649 433.184 239.013 433.76 239.013 434.552ZM249.381 439.412L245.025 439.412L246.213 435.272L245.025 434.732L245.025 428.468C245.025 427.7 244.761 427.088 244.233 426.632C243.705 426.176 243.009 425.948 242.145 425.948C241.257 425.948 240.525 426.236 239.949 426.812C239.373 427.364 239.037 428.084 238.941 428.972L234.657 428.396C234.921 426.548 235.725 425.036 237.069 423.86C238.413 422.684 240.129 422.096 242.217 422.096C244.329 422.096 246.045 422.672 247.365 423.824C248.709 424.976 249.381 426.392 249.381 428.072L249.381 439.412ZM122.912 466.808C123.968 466.664 124.796 466.256 125.396 465.584C126.02 464.888 126.332 464.036 126.332 463.028C126.332 461.564 125.66 460.376 124.316 459.464C122.996 458.528 121.268 458.06 119.132 458.06C117.068 458.06 115.4 458.528 114.128 459.464C112.88 460.376 112.064 461.708 111.68 463.46L116 464.072C116.408 462.656 117.428 461.948 119.06 461.948C119.924 461.948 120.62 462.128 121.148 462.488C121.676 462.848 121.94 463.328 121.94 463.928C121.94 464.312 121.736 464.624 121.328 464.864C120.944 465.104 120.428 465.224 119.78 465.224L116.54 465.224L116.54 468.86L119.78 468.86C120.428 468.86 120.944 468.992 121.328 469.256C121.736 469.52 121.94 469.892 121.94 470.372C121.94 471.044 121.664 471.596 121.112 472.028C120.584 472.436 119.876 472.64 118.988 472.64C117.404 472.64 116.408 471.752 116 469.976L111.68 470.552C112.064 472.4 112.88 473.816 114.128 474.8C115.4 475.76 117.056 476.24 119.096 476.24C121.232 476.24 122.972 475.724 124.316 474.692C125.66 473.66 126.332 472.34 126.332 470.732C126.332 469.796 126.02 469.016 125.396 468.392C124.796 467.768 123.968 467.384 122.912 467.24L122.912 466.808ZM132.595 470.552C132.595 471.152 132.823 471.596 133.279 471.884C133.735 472.172 134.335 472.316 135.079 472.316C136.111 472.316 136.951 472.016 137.599 471.416C138.271 470.816 138.607 470.048 138.607 469.112L139.291 469.112C139.291 471.224 138.763 472.928 137.707 474.224C136.651 475.52 135.259 476.168 133.531 476.168C131.995 476.168 130.723 475.724 129.715 474.836C128.731 473.924 128.239 472.76 128.239 471.344C128.239 470.048 128.623 469.028 129.391 468.284C130.159 467.516 131.359 466.892 132.991 466.412L138.607 464.864L138.607 467.672L134.503 468.824C133.231 469.184 132.595 469.76 132.595 470.552ZM142.963 475.412L138.607 475.412L139.795 471.272L138.607 470.732L138.607 464.468C138.607 463.7 138.343 463.088 137.815 462.632C137.287 462.176 136.591 461.948 135.727 461.948C134.839 461.948 134.107 462.236 133.531 462.812C132.955 463.364 132.619 464.084 132.523 464.972L128.239 464.396C128.503 462.548 129.307 461.036 130.651 459.86C131.995 458.684 133.711 458.096 135.799 458.096C137.911 458.096 139.627 458.672 140.947 459.824C142.291 460.976 142.963 462.392 142.963 464.072L142.963 475.412ZM158.858 475.412L154.682 475.412L150.326 465.368L150.326 475.412L145.97 475.412L145.97 458.852L151.514 458.852L156.77 471.056L162.098 458.852L167.39 458.852L167.39 475.412L163.25 475.412L163.25 465.368L158.858 475.412ZM174.185 467.06C174.185 468.764 174.521 470.072 175.193 470.984C175.865 471.896 176.801 472.352 178.001 472.352C179.201 472.352 180.137 471.896 180.809 470.984C181.481 470.072 181.817 468.764 181.817 467.06C181.817 465.38 181.481 464.084 180.809 463.172C180.137 462.26 179.201 461.804 178.001 461.804C176.801 461.804 175.865 462.26 175.193 463.172C174.521 464.084 174.185 465.38 174.185 467.06ZM169.793 467.06C169.793 464.204 170.525 461.984 171.989 460.4C173.477 458.816 175.481 458.024 178.001 458.024C180.353 458.024 182.309 458.828 183.869 460.436C185.429 462.044 186.209 464.252 186.209 467.06C186.209 469.94 185.465 472.184 183.977 473.792C182.489 475.376 180.485 476.168 177.965 476.168C175.469 476.168 173.477 475.376 171.989 473.792C170.525 472.184 169.793 469.94 169.793 467.06ZM194.122 471.092C193.402 470.18 193.042 468.872 193.042 467.168C193.042 465.464 193.402 464.156 194.122 463.244C194.842 462.332 195.838 461.876 197.11 461.876C198.382 461.876 199.366 462.332 200.062 463.244C200.782 464.156 201.142 465.464 201.142 467.168C201.142 468.872 200.782 470.18 200.062 471.092C199.366 472.004 198.382 472.46 197.11 472.46C195.838 472.46 194.842 472.004 194.122 471.092ZM192.142 467.168C192.142 470.072 192.682 472.316 193.762 473.9C194.842 475.46 196.354 476.24 198.298 476.24C200.338 476.24 202.054 475.436 203.446 473.828C204.838 472.196 205.534 469.94 205.534 467.06C205.534 464.3 204.874 462.116 203.554 460.508C202.258 458.9 200.566 458.096 198.478 458.096C196.462 458.096 194.902 458.888 193.798 460.472C192.694 462.032 192.142 464.264 192.142 467.168ZM188.65 482.468L193.042 482.468L193.042 475.412L191.818 471.2L193.042 470.732L193.042 463.532L191.854 463.064L193.042 458.852L188.65 458.852L188.65 482.468ZM211.802 467.06C211.802 468.764 212.138 470.072 212.81 470.984C213.482 471.896 214.418 472.352 215.618 472.352C216.818 472.352 217.754 471.896 218.426 470.984C219.098 470.072 219.434 468.764 219.434 467.06C219.434 465.38 219.098 464.084 218.426 463.172C217.754 462.26 216.818 461.804 215.618 461.804C214.418 461.804 213.482 462.26 212.81 463.172C212.138 464.084 211.802 465.38 211.802 467.06ZM207.41 467.06C207.41 464.204 208.142 461.984 209.606 460.4C211.094 458.816 213.098 458.024 215.618 458.024C217.97 458.024 219.926 458.828 221.486 460.436C223.046 462.044 223.826 464.252 223.826 467.06C223.826 469.94 223.082 472.184 221.594 473.792C220.106 475.376 218.102 476.168 215.582 476.168C213.086 476.168 211.094 475.376 209.606 473.792C208.142 472.184 207.41 469.94 207.41 467.06ZM236.923 466.808C237.979 466.664 238.807 466.256 239.407 465.584C240.031 464.888 240.343 464.036 240.343 463.028C240.343 461.564 239.671 460.376 238.327 459.464C237.007 458.528 235.279 458.06 233.143 458.06C231.079 458.06 229.411 458.528 228.139 459.464C226.891 460.376 226.075 461.708 225.691 463.46L230.011 464.072C230.419 462.656 231.439 461.948 233.071 461.948C233.935 461.948 234.631 462.128 235.159 462.488C235.687 462.848 235.951 463.328 235.951 463.928C235.951 464.312 235.747 464.624 235.339 464.864C234.955 465.104 234.439 465.224 233.791 465.224L230.551 465.224L230.551 468.86L233.791 468.86C234.439 468.86 234.955 468.992 235.339 469.256C235.747 469.52 235.951 469.892 235.951 470.372C235.951 471.044 235.675 471.596 235.123 472.028C234.595 472.436 233.887 472.64 232.999 472.64C231.415 472.64 230.419 471.752 230.011 469.976L225.691 470.552C226.075 472.4 226.891 473.816 228.139 474.8C229.411 475.76 231.067 476.24 233.107 476.24C235.243 476.24 236.983 475.724 238.327 474.692C239.671 473.66 240.343 472.34 240.343 470.732C240.343 469.796 240.031 469.016 239.407 468.392C238.807 467.768 237.979 467.384 236.923 467.24L236.923 466.808ZM242.791 458.852L247.147 458.852L247.147 466.088L253.807 458.852L259.099 458.852L252.511 466.484L259.099 475.412L253.879 475.412L249.415 469.076L247.147 471.488L247.147 475.412L242.791 475.412L242.791 458.852ZM264.994 470.552C264.994 471.152 265.222 471.596 265.678 471.884C266.134 472.172 266.734 472.316 267.478 472.316C268.51 472.316 269.35 472.016 269.998 471.416C270.67 470.816 271.006 470.048 271.006 469.112L271.69 469.112C271.69 471.224 271.162 472.928 270.106 474.224C269.05 475.52 267.658 476.168 265.93 476.168C264.394 476.168 263.122 475.724 262.114 474.836C261.13 473.924 260.638 472.76 260.638 471.344C260.638 470.048 261.022 469.028 261.79 468.284C262.558 467.516 263.758 466.892 265.39 466.412L271.006 464.864L271.006 467.672L266.902 468.824C265.63 469.184 264.994 469.76 264.994 470.552ZM275.362 475.412L271.006 475.412L272.194 471.272L271.006 470.732L271.006 464.468C271.006 463.7 270.742 463.088 270.214 462.632C269.686 462.176 268.99 461.948 268.126 461.948C267.238 461.948 266.506 462.236 265.93 462.812C265.354 463.364 265.018 464.084 264.922 464.972L260.638 464.396C260.902 462.548 261.706 461.036 263.05 459.86C264.394 458.684 266.11 458.096 268.198 458.096C270.31 458.096 272.026 458.672 273.346 459.824C274.69 460.976 275.362 462.392 275.362 464.072L275.362 475.412Z" fill="white"/>
<path d="M420.115 423.336L424.606 423.336L424.606 429.869L431.511 429.869L431.511 423.336L436.003 423.336L436.003 440.412L431.511 440.412L431.511 434.101L424.606 434.101L424.606 440.412L420.115 440.412L420.115 423.336ZM443.046 435.401C443.046 436.019 443.281 436.477 443.751 436.774C444.221 437.071 444.84 437.22 445.607 437.22C446.671 437.22 447.538 436.91 448.206 436.292C448.899 435.673 449.245 434.881 449.245 433.916L449.951 433.916C449.951 436.094 449.406 437.851 448.317 439.187C447.228 440.523 445.793 441.192 444.011 441.192C442.427 441.192 441.115 440.734 440.076 439.818C439.061 438.878 438.554 437.677 438.554 436.217C438.554 434.881 438.95 433.829 439.742 433.062C440.534 432.27 441.771 431.626 443.454 431.132L449.245 429.535L449.245 432.431L445.013 433.619C443.702 433.99 443.046 434.584 443.046 435.401ZM453.737 440.412L449.245 440.412L450.47 436.143L449.245 435.586L449.245 429.127C449.245 428.335 448.973 427.704 448.429 427.234C447.884 426.763 447.166 426.528 446.275 426.528C445.36 426.528 444.605 426.825 444.011 427.419C443.417 427.988 443.071 428.731 442.972 429.647L438.554 429.053C438.826 427.147 439.655 425.588 441.041 424.375C442.427 423.163 444.197 422.556 446.35 422.556C448.528 422.556 450.297 423.15 451.658 424.338C453.044 425.526 453.737 426.986 453.737 428.719L453.737 440.412ZM456.281 423.336L456.281 427.531L461.701 427.531L461.701 440.412L466.23 440.412L466.23 427.531L471.724 427.531L471.724 423.336L456.281 423.336ZM482.778 434.213L486.044 423.336L490.907 423.336L483.817 443.53C483.396 444.817 482.716 445.807 481.775 446.5C480.86 447.193 479.845 447.54 478.731 447.54L474.314 447.54L474.277 443.493L476.986 443.493C477.556 443.493 478.001 443.37 478.323 443.122C478.645 442.899 478.88 442.503 479.028 441.934L479.474 440.412L473.237 423.336L478.1 423.336L481.441 434.213L481.85 436.292L482.332 436.292L482.778 434.213ZM498.661 435.957C497.918 435.017 497.547 433.668 497.547 431.911C497.547 430.154 497.918 428.805 498.661 427.865C499.403 426.924 500.43 426.454 501.742 426.454C503.054 426.454 504.068 426.924 504.786 427.865C505.528 428.805 505.9 430.154 505.9 431.911C505.9 433.668 505.528 435.017 504.786 435.957C504.068 436.898 503.054 437.368 501.742 437.368C500.43 437.368 499.403 436.898 498.661 435.957ZM496.619 431.911C496.619 434.906 497.176 437.22 498.29 438.853C499.403 440.462 500.962 441.266 502.967 441.266C505.071 441.266 506.84 440.437 508.275 438.779C509.711 437.096 510.429 434.769 510.429 431.8C510.429 428.954 509.748 426.702 508.387 425.043C507.05 423.385 505.306 422.556 503.153 422.556C501.074 422.556 499.465 423.373 498.327 425.006C497.188 426.615 496.619 428.917 496.619 431.911ZM493.018 447.688L497.547 447.688L497.547 440.412L496.285 436.069L497.547 435.586L497.547 428.162L496.322 427.679L497.547 423.336L493.018 423.336L493.018 447.688ZM516.892 435.401C516.892 436.019 517.127 436.477 517.597 436.774C518.067 437.071 518.686 437.22 519.453 437.22C520.518 437.22 521.384 436.91 522.052 436.292C522.745 435.673 523.091 434.881 523.091 433.916L523.797 433.916C523.797 436.094 523.252 437.851 522.163 439.187C521.074 440.523 519.639 441.192 517.857 441.192C516.273 441.192 514.962 440.734 513.922 439.818C512.907 438.878 512.4 437.677 512.4 436.217C512.4 434.881 512.796 433.829 513.588 433.062C514.38 432.27 515.617 431.626 517.3 431.132L523.091 429.535L523.091 432.431L518.859 433.619C517.548 433.99 516.892 434.584 516.892 435.401ZM527.583 440.412L523.091 440.412L524.316 436.143L523.091 435.586L523.091 429.127C523.091 428.335 522.819 427.704 522.275 427.234C521.73 426.763 521.013 426.528 520.122 426.528C519.206 426.528 518.451 426.825 517.857 427.419C517.263 427.988 516.917 428.731 516.818 429.647L512.4 429.053C512.672 427.147 513.501 425.588 514.887 424.375C516.273 423.163 518.043 422.556 520.196 422.556C522.374 422.556 524.143 423.15 525.504 424.338C526.89 425.526 527.583 426.986 527.583 428.719L527.583 440.412ZM546.647 423.336L546.647 440.412L542.155 440.412L542.155 427.531L537.923 427.531L537.923 432.097C537.923 433.483 537.787 434.683 537.515 435.698C537.267 436.712 536.946 437.517 536.55 438.111C536.154 438.704 535.646 439.187 535.028 439.558C534.434 439.905 533.827 440.14 533.209 440.264C532.615 440.363 531.922 440.412 531.13 440.412L529.942 440.412L529.942 436.143L531.13 436.143C531.501 436.143 531.798 436.106 532.021 436.032C532.268 435.933 532.503 435.747 532.726 435.475C532.974 435.178 533.147 434.72 533.246 434.101C533.37 433.483 533.431 432.678 533.431 431.688L533.431 423.336L546.647 423.336ZM554.245 436.18L557.883 436.18C559.987 436.18 561.038 435.611 561.038 434.473C561.038 433.285 559.949 432.691 557.772 432.691L554.245 432.691L554.245 436.18ZM554.245 423.336L554.245 428.384L558.143 428.384C560.37 428.384 562.152 428.929 563.488 430.018C564.85 431.107 565.53 432.616 565.53 434.547C565.53 436.428 564.899 437.875 563.637 438.89C562.399 439.905 560.618 440.412 558.291 440.412L549.753 440.412L549.753 423.336L554.245 423.336ZM568.133 423.336L572.625 423.336L572.625 429.869L579.53 429.869L579.53 423.336L584.021 423.336L584.021 440.412L579.53 440.412L579.53 434.101L572.625 434.101L572.625 440.412L568.133 440.412L568.133 423.336ZM586.721 418.695C586.721 418.003 586.981 417.396 587.501 416.876C588.02 416.357 588.627 416.097 589.32 416.097C590.037 416.097 590.644 416.357 591.139 416.876C591.658 417.396 591.918 418.003 591.918 418.695C591.918 419.413 591.658 420.032 591.139 420.552C590.644 421.071 590.037 421.331 589.32 421.331C588.627 421.331 588.02 421.071 587.501 420.552C586.981 420.032 586.721 419.413 586.721 418.695ZM587.129 423.336L591.621 423.336L591.621 440.412L587.129 440.412L587.129 423.336ZM414.885 455.695C414.885 455.003 415.145 454.396 415.664 453.876C416.184 453.357 416.79 453.097 417.483 453.097C418.201 453.097 418.807 453.357 419.302 453.876C419.822 454.396 420.082 455.003 420.082 455.695C420.082 456.413 419.822 457.032 419.302 457.552C418.807 458.071 418.201 458.331 417.483 458.331C416.79 458.331 416.184 458.071 415.664 457.552C415.145 457.032 414.885 456.413 414.885 455.695ZM415.293 460.336L419.785 460.336L419.785 477.412L415.293 477.412L415.293 460.336ZM422.797 460.336L427.289 460.336L427.289 466.869L434.194 466.869L434.194 460.336L438.686 460.336L438.686 477.412L434.194 477.412L434.194 471.101L427.289 471.101L427.289 477.412L422.797 477.412L422.797 460.336ZM441.794 460.336L441.794 477.412L446.285 477.412L446.285 464.531L455.12 464.531L455.12 460.336L441.794 460.336ZM462.952 472.957C462.21 472.017 461.838 470.668 461.838 468.911C461.838 467.154 462.21 465.805 462.952 464.865C463.695 463.924 464.722 463.454 466.033 463.454C467.345 463.454 468.36 463.924 469.077 464.865C469.82 465.805 470.191 467.154 470.191 468.911C470.191 470.668 469.82 472.017 469.077 472.957C468.36 473.898 467.345 474.368 466.033 474.368C464.722 474.368 463.695 473.898 462.952 472.957ZM460.91 468.911C460.91 471.906 461.467 474.22 462.581 475.853C463.695 477.462 465.254 478.266 467.258 478.266C469.362 478.266 471.131 477.437 472.567 475.779C474.002 474.096 474.72 471.769 474.72 468.8C474.72 465.954 474.039 463.702 472.678 462.043C471.342 460.385 469.597 459.556 467.444 459.556C465.365 459.556 463.756 460.373 462.618 462.006C461.48 463.615 460.91 465.917 460.91 468.911ZM457.31 484.688L461.838 484.688L461.838 477.412L460.576 473.069L461.838 472.586L461.838 465.162L460.613 464.679L461.838 460.336L457.31 460.336L457.31 484.688ZM481.22 470.062C481.344 471.423 481.777 472.462 482.52 473.18C483.262 473.898 484.264 474.257 485.527 474.257C486.517 474.257 487.333 474.022 487.977 473.551C488.645 473.056 489.066 472.388 489.239 471.547L493.582 472.215C493.162 474.071 492.233 475.531 490.798 476.595C489.363 477.66 487.606 478.192 485.527 478.192C482.78 478.192 480.614 477.363 479.03 475.704C477.471 474.022 476.692 471.72 476.692 468.8C476.692 465.929 477.434 463.664 478.919 462.006C480.429 460.323 482.495 459.482 485.118 459.482C487.766 459.482 489.833 460.323 491.318 462.006C492.827 463.664 493.582 465.855 493.582 468.577L493.582 470.062L481.22 470.062ZM481.295 467.018L489.053 467.018C489.053 465.954 488.682 465.087 487.94 464.419C487.197 463.726 486.257 463.38 485.118 463.38C484.029 463.38 483.163 463.702 482.52 464.345C481.876 464.964 481.468 465.855 481.295 467.018ZM514.735 474.368L514.735 483.352L510.206 483.352L510.206 478.674L499.96 478.674L499.96 483.352L495.506 483.352L495.506 474.368L496.731 474.368C497.151 474.368 497.498 474.319 497.77 474.22C498.067 474.121 498.352 473.898 498.624 473.551C498.921 473.18 499.144 472.599 499.292 471.807C499.441 470.99 499.515 469.95 499.515 468.688L499.515 460.336L512.73 460.336L512.73 474.368L514.735 474.368ZM508.239 474.368L508.239 464.531L503.97 464.531L503.97 469.097C503.97 471.547 503.388 473.056 502.225 473.626L502.336 474.368L508.239 474.368ZM516.863 455.695C516.863 455.003 517.122 454.396 517.642 453.876C518.162 453.357 518.768 453.097 519.461 453.097C520.179 453.097 520.785 453.357 521.28 453.876C521.8 454.396 522.06 455.003 522.06 455.695C522.06 456.413 521.8 457.032 521.28 457.552C520.785 458.071 520.179 458.331 519.461 458.331C518.768 458.331 518.162 458.071 517.642 457.552C517.122 457.032 516.863 456.413 516.863 455.695ZM517.271 460.336L521.763 460.336L521.763 477.412L517.271 477.412L517.271 460.336ZM534.984 470.656L534.984 466.944L525.406 466.944L525.406 470.656L534.984 470.656ZM540.812 465.496C540.193 463.565 539.166 462.081 537.731 461.041C536.296 460.002 534.65 459.482 532.794 459.482C530.17 459.482 528.079 460.299 526.52 461.932C524.961 463.565 524.181 465.855 524.181 468.8C524.181 471.769 524.961 474.083 526.52 475.742C528.079 477.375 530.17 478.192 532.794 478.192C534.823 478.192 536.568 477.635 538.028 476.521C539.513 475.407 540.466 473.836 540.886 471.807L536.469 471.176C536.271 472.165 535.838 472.933 535.17 473.477C534.526 473.997 533.734 474.257 532.794 474.257C531.507 474.257 530.504 473.786 529.787 472.846C529.069 471.906 528.71 470.557 528.71 468.8C528.71 467.067 529.069 465.731 529.787 464.79C530.504 463.85 531.507 463.38 532.794 463.38C534.675 463.38 535.9 464.296 536.469 466.127L540.812 465.496ZM543.373 460.336L547.864 460.336L547.864 466.869L554.769 466.869L554.769 460.336L559.261 460.336L559.261 477.412L554.769 477.412L554.769 471.101L547.864 471.101L547.864 477.412L543.373 477.412L543.373 460.336ZM561.812 460.336L561.812 464.531L567.232 464.531L567.232 477.412L571.761 477.412L571.761 464.531L577.255 464.531L577.255 460.336L561.812 460.336ZM584.299 460.336L579.77 460.336L579.77 477.412L585.116 477.412L591.872 466.313L591.872 477.412L596.327 477.412L596.327 460.336L591.055 460.336L584.299 471.361L584.299 460.336Z" fill="white"/>
<path d="M782.465 440L761.305 440L761.305 422.924L765.797 422.924L765.797 435.805L769.657 435.805L769.657 422.924L774.149 422.924L774.149 435.805L777.973 435.805L777.973 422.924L782.465 422.924L782.465 440ZM790.086 436.251L794.652 436.251C796.632 436.251 797.622 435.719 797.622 434.654C797.622 433.714 796.632 433.244 794.652 433.244L790.086 433.244L790.086 436.251ZM790.086 429.531L794.652 429.531C796.359 429.531 797.213 429.049 797.213 428.084C797.213 427.589 797.015 427.23 796.619 427.007C796.223 426.76 795.567 426.636 794.652 426.636L790.086 426.636L790.086 429.531ZM797.51 431.128L797.51 431.61C798.896 431.833 800.01 432.291 800.851 432.984C801.693 433.652 802.113 434.456 802.113 435.397C802.113 436.807 801.482 437.934 800.22 438.775C798.958 439.592 797.238 440 795.06 440L785.594 440L785.594 422.924L795.06 422.924C797.213 422.924 798.859 423.32 799.997 424.112C801.161 424.904 801.742 425.98 801.742 427.341C801.742 428.306 801.371 429.135 800.628 429.828C799.886 430.521 798.847 430.954 797.51 431.128ZM809.155 422.924L804.626 422.924L804.626 440L809.972 440L816.728 428.9L816.728 440L821.183 440L821.183 422.924L815.912 422.924L809.155 433.949L809.155 422.924ZM842.947 436.956L842.947 445.94L838.418 445.94L838.418 441.262L828.172 441.262L828.172 445.94L823.717 445.94L823.717 436.956L824.942 436.956C825.363 436.956 825.71 436.906 825.982 436.807C826.279 436.708 826.563 436.486 826.836 436.139C827.133 435.768 827.355 435.186 827.504 434.395C827.652 433.578 827.727 432.538 827.727 431.276L827.727 422.924L840.942 422.924L840.942 436.956L842.947 436.956ZM836.45 436.956L836.45 427.119L832.181 427.119L832.181 431.685C832.181 434.135 831.6 435.644 830.437 436.214L830.548 436.956L836.45 436.956ZM845.483 422.924L849.975 422.924L849.975 430.385L856.842 422.924L862.299 422.924L855.506 430.794L862.299 440L856.916 440L852.313 433.466L849.975 435.954L849.975 440L845.483 440L845.483 422.924ZM868.378 431.388C868.378 433.145 868.724 434.494 869.417 435.434C870.11 436.374 871.075 436.845 872.313 436.845C873.55 436.845 874.515 436.374 875.208 435.434C875.901 434.494 876.248 433.145 876.248 431.388C876.248 429.655 875.901 428.319 875.208 427.378C874.515 426.438 873.55 425.968 872.313 425.968C871.075 425.968 870.11 426.438 869.417 427.378C868.724 428.319 868.378 429.655 868.378 431.388ZM863.849 431.388C863.849 428.443 864.604 426.153 866.113 424.52C867.648 422.887 869.714 422.07 872.313 422.07C874.738 422.07 876.755 422.899 878.364 424.557C879.972 426.215 880.777 428.492 880.777 431.388C880.777 434.357 880.009 436.671 878.475 438.329C876.941 439.963 874.874 440.78 872.276 440.78C869.702 440.78 867.648 439.963 866.113 438.329C864.604 436.671 863.849 434.357 863.849 431.388ZM741.366 459.924L741.366 477L745.858 477L745.858 464.119L754.693 464.119L754.693 459.924L741.366 459.924ZM760.817 468.388C760.817 470.145 761.163 471.494 761.856 472.434C762.549 473.374 763.514 473.845 764.752 473.845C765.989 473.845 766.955 473.374 767.647 472.434C768.34 471.494 768.687 470.145 768.687 468.388C768.687 466.655 768.34 465.319 767.647 464.378C766.955 463.438 765.989 462.968 764.752 462.968C763.514 462.968 762.549 463.438 761.856 464.378C761.163 465.319 760.817 466.655 760.817 468.388ZM756.288 468.388C756.288 465.443 757.043 463.153 758.552 461.52C760.087 459.887 762.153 459.07 764.752 459.07C767.177 459.07 769.194 459.899 770.803 461.557C772.412 463.215 773.216 465.492 773.216 468.388C773.216 471.357 772.449 473.671 770.914 475.329C769.38 476.963 767.313 477.78 764.715 477.78C762.141 477.78 760.087 476.963 758.552 475.329C757.043 473.671 756.288 471.357 756.288 468.388ZM775.176 459.924L775.176 464.119L780.596 464.119L780.596 477L785.125 477L785.125 464.119L790.619 464.119L790.619 459.924L775.176 459.924ZM801.672 470.801L804.939 459.924L809.802 459.924L802.712 480.118C802.291 481.405 801.611 482.395 800.67 483.088C799.755 483.781 798.74 484.128 797.626 484.128L793.209 484.128L793.171 480.081L795.881 480.081C796.451 480.081 796.896 479.957 797.218 479.71C797.54 479.487 797.775 479.091 797.923 478.522L798.369 477L792.132 459.924L796.995 459.924L800.336 470.801L800.744 472.879L801.227 472.879L801.672 470.801ZM822.122 470.244L822.122 466.531L812.544 466.531L812.544 470.244L822.122 470.244ZM827.95 465.084C827.331 463.153 826.304 461.668 824.869 460.629C823.433 459.59 821.788 459.07 819.932 459.07C817.308 459.07 815.217 459.887 813.658 461.52C812.099 463.153 811.319 465.443 811.319 468.388C811.319 471.357 812.099 473.671 813.658 475.329C815.217 476.963 817.308 477.78 819.932 477.78C821.961 477.78 823.706 477.223 825.166 476.109C826.651 474.995 827.603 473.424 828.024 471.395L823.607 470.763C823.409 471.753 822.976 472.521 822.307 473.065C821.664 473.585 820.872 473.845 819.932 473.845C818.645 473.845 817.642 473.374 816.925 472.434C816.207 471.494 815.848 470.145 815.848 468.388C815.848 466.655 816.207 465.319 816.925 464.378C817.642 463.438 818.645 462.968 819.932 462.968C821.812 462.968 823.037 463.883 823.607 465.715L827.95 465.084ZM829.954 459.924L829.954 464.119L835.374 464.119L835.374 477L839.903 477L839.903 464.119L845.397 464.119L845.397 459.924L829.954 459.924ZM852.403 472.768L856.041 472.768C858.145 472.768 859.197 472.199 859.197 471.06C859.197 469.872 858.108 469.279 855.93 469.279L852.403 469.279L852.403 472.768ZM852.403 459.924L852.403 464.972L856.301 464.972C858.529 464.972 860.311 465.517 861.647 466.606C863.008 467.695 863.689 469.204 863.689 471.135C863.689 473.016 863.058 474.463 861.795 475.478C860.558 476.493 858.776 477 856.45 477L847.912 477L847.912 459.924L852.403 459.924ZM882.477 465.826L878.208 466.457C877.911 465.344 877.428 464.49 876.76 463.896C876.092 463.277 875.275 462.968 874.31 462.968C873.023 462.968 872.021 463.438 871.303 464.378C870.585 465.319 870.227 466.655 870.227 468.388C870.227 470.145 870.585 471.494 871.303 472.434C872.021 473.374 873.023 473.845 874.31 473.845C875.35 473.845 876.216 473.51 876.909 472.842C877.626 472.174 878.084 471.234 878.282 470.021L882.626 470.652C882.205 472.904 881.24 474.661 879.73 475.923C878.22 477.161 876.414 477.78 874.31 477.78C871.712 477.78 869.633 476.963 868.074 475.329C866.514 473.671 865.735 471.357 865.735 468.388C865.735 465.443 866.514 463.153 868.074 461.52C869.633 459.887 871.712 459.07 874.31 459.07C876.216 459.07 877.899 459.664 879.359 460.852C880.819 462.015 881.858 463.673 882.477 465.826ZM885.072 477L888.896 469.427L893.647 469.427L889.824 477L885.072 477ZM895.652 464.156L891.494 464.156C889.712 464.156 888.821 464.663 888.821 465.678C888.821 466.742 889.75 467.274 891.606 467.274L895.652 467.274L895.652 464.156ZM895.652 477L895.652 471.58L891.717 471.58C889.514 471.58 887.733 471.06 886.371 470.021C885.035 468.957 884.367 467.497 884.367 465.641C884.367 463.809 884.985 462.399 886.223 461.409C887.485 460.419 889.267 459.924 891.569 459.924L900.107 459.924L900.107 477L895.652 477Z" fill="white"/>
<path d="M8.46689 648.506C9.16259 648.412 9.70808 648.143 10.1034 647.7C10.5145 647.242 10.72 646.68 10.72 646.016C10.72 645.052 10.2773 644.269 9.39185 643.668C8.52223 643.051 7.3838 642.743 5.97659 642.743C4.61681 642.743 3.51791 643.051 2.67991 643.668C1.85772 644.269 1.32013 645.146 1.06715 646.301L3.9132 646.704C4.18199 645.771 4.85398 645.305 5.92915 645.305C6.49836 645.305 6.9569 645.423 7.30475 645.66C7.6526 645.898 7.82652 646.214 7.82652 646.609C7.82652 646.862 7.69213 647.068 7.42333 647.226C7.17035 647.384 6.8304 647.463 6.4035 647.463L4.26896 647.463L4.26896 649.858L6.4035 649.858C6.8304 649.858 7.17035 649.945 7.42333 650.119C7.69213 650.293 7.82652 650.538 7.82652 650.854C7.82652 651.297 7.64469 651.661 7.28103 651.945C6.93318 652.214 6.46674 652.349 5.88172 652.349C4.83817 652.349 4.18199 651.764 3.9132 650.594L1.06715 650.973C1.32013 652.19 1.85772 653.123 2.67991 653.772C3.51791 654.404 4.6089 654.72 5.95287 654.72C7.36009 654.72 8.50641 654.38 9.39185 653.7C10.2773 653.021 10.72 652.151 10.72 651.092C10.72 650.475 10.5145 649.961 10.1034 649.55C9.70808 649.139 9.16259 648.886 8.46689 648.791L8.46689 648.506ZM11.9529 648.388C11.9529 650.238 12.4905 651.748 13.5657 652.918C14.6567 654.088 16.056 654.673 17.7636 654.673C19.2973 654.673 20.5306 654.191 21.4635 653.226C22.4122 652.246 22.8865 650.965 22.8865 649.384C22.8865 647.755 22.4675 646.411 21.6295 645.352C20.8073 644.277 19.7559 643.739 18.4751 643.739C17.3209 643.739 16.3722 644.198 15.6291 645.115C14.9018 646.016 14.5381 647.178 14.5381 648.601L11.9529 648.388ZM14.8464 649.123C14.8464 648.222 15.0678 647.518 15.5105 647.012C15.969 646.49 16.5857 646.23 17.3604 646.23C18.1826 646.23 18.823 646.49 19.2815 647.012C19.7559 647.534 19.993 648.261 19.993 649.194C19.993 650.111 19.7717 650.839 19.329 651.376C18.902 651.898 18.317 652.159 17.5739 652.159C16.7833 652.159 16.1271 651.874 15.6054 651.305C15.0994 650.72 14.8464 649.993 14.8464 649.123ZM17.2418 639.28C15.8188 639.707 14.7357 640.253 13.9926 640.917C13.2653 641.581 12.7435 642.482 12.4273 643.621C12.111 644.759 11.9529 646.348 11.9529 648.388L14.8464 648.744C14.8464 647.921 14.8543 647.289 14.8701 646.846L14.2298 646.49L14.965 644.617C15.1073 643.763 15.3682 643.123 15.7477 642.696C16.143 642.269 16.8149 641.945 17.7636 641.723C18.9969 641.423 20.0167 641.028 20.8231 640.537C21.6453 640.031 22.1671 639.533 22.3885 639.043L20.0405 637.502C19.7559 638.245 18.823 638.838 17.2418 639.28ZM27.0298 649.479C27.1088 650.348 27.3855 651.013 27.8599 651.471C28.3342 651.93 28.9746 652.159 29.781 652.159C30.4134 652.159 30.9352 652.009 31.3463 651.708C31.7732 651.392 32.042 650.965 32.1527 650.428L34.9276 650.854C34.6588 652.04 34.0659 652.973 33.1488 653.653C32.2317 654.333 31.1091 654.673 29.781 654.673C28.0259 654.673 26.6424 654.143 25.6305 653.084C24.6344 652.009 24.1363 650.538 24.1363 648.672C24.1363 646.838 24.6106 645.392 25.5593 644.332C26.5238 643.257 27.8441 642.719 29.5201 642.719C31.2119 642.719 32.5322 643.257 33.4808 644.332C34.4453 645.392 34.9276 646.791 34.9276 648.53L34.9276 649.479L27.0298 649.479ZM27.0772 647.534L32.0341 647.534C32.0341 646.854 31.7969 646.301 31.3226 645.874C30.8482 645.431 30.2474 645.21 29.5201 645.21C28.8244 645.21 28.271 645.415 27.8599 645.826C27.4488 646.222 27.1879 646.791 27.0772 647.534ZM40.1409 651.329C39.6666 650.728 39.4294 649.866 39.4294 648.744C39.4294 647.621 39.6666 646.759 40.1409 646.158C40.6152 645.558 41.2714 645.257 42.1094 645.257C42.9474 645.257 43.5957 645.558 44.0542 646.158C44.5286 646.759 44.7657 647.621 44.7657 648.744C44.7657 649.866 44.5286 650.728 44.0542 651.329C43.5957 651.93 42.9474 652.23 42.1094 652.23C41.2714 652.23 40.6152 651.93 40.1409 651.329ZM38.8365 648.744C38.8365 650.657 39.1922 652.135 39.9037 653.179C40.6152 654.206 41.6114 654.72 42.8921 654.72C44.2361 654.72 45.3666 654.191 46.2836 653.131C47.2007 652.056 47.6592 650.57 47.6592 648.672C47.6592 646.854 47.2244 645.415 46.3548 644.356C45.501 643.297 44.3863 642.767 43.0107 642.767C41.6825 642.767 40.6548 643.289 39.9274 644.332C39.2001 645.36 38.8365 646.83 38.8365 648.744ZM36.5359 658.823L39.4294 658.823L39.4294 654.175L38.623 651.4L39.4294 651.092L39.4294 646.348L38.6467 646.04L39.4294 643.265L36.5359 643.265L36.5359 658.823ZM49.0137 640.3C49.0137 639.858 49.1797 639.47 49.5118 639.138C49.8438 638.806 50.2312 638.64 50.6739 638.64C51.1324 638.64 51.5198 638.806 51.836 639.138C52.1681 639.47 52.3341 639.858 52.3341 640.3C52.3341 640.759 52.1681 641.154 51.836 641.486C51.5198 641.818 51.1324 641.984 50.6739 641.984C50.2312 641.984 49.8438 641.818 49.5118 641.486C49.1797 641.154 49.0137 640.759 49.0137 640.3ZM49.2746 643.265L52.1444 643.265L52.1444 654.175L49.2746 654.175L49.2746 643.265ZM54.069 643.265L54.069 654.175L56.9387 654.175L56.9387 645.945L62.5834 645.945L62.5834 643.265L54.069 643.265ZM66.496 650.973C66.496 651.368 66.6462 651.661 66.9466 651.851C67.247 652.04 67.6423 652.135 68.1325 652.135C68.8124 652.135 69.3658 651.937 69.7927 651.542C70.2354 651.147 70.4568 650.641 70.4568 650.024L70.9074 650.024C70.9074 651.416 70.5595 652.538 69.8638 653.392C69.1681 654.246 68.2511 654.673 67.1126 654.673C66.1007 654.673 65.2627 654.38 64.5986 653.795C63.9504 653.194 63.6262 652.428 63.6262 651.495C63.6262 650.641 63.8792 649.969 64.3852 649.479C64.8911 648.973 65.6817 648.562 66.7569 648.246L70.4568 647.226L70.4568 649.076L67.753 649.835C66.915 650.072 66.496 650.451 66.496 650.973ZM73.3265 654.175L70.4568 654.175L71.2394 651.447L70.4568 651.092L70.4568 646.965C70.4568 646.459 70.2828 646.056 69.935 645.755C69.5871 645.455 69.1286 645.305 68.5594 645.305C67.9744 645.305 67.4921 645.494 67.1126 645.874C66.7332 646.237 66.5118 646.712 66.4486 647.297L63.6262 646.917C63.8001 645.7 64.3298 644.704 65.2153 643.929C66.1007 643.154 67.2312 642.767 68.6068 642.767C69.9982 642.767 71.1287 643.146 71.9984 643.905C72.8838 644.664 73.3265 645.597 73.3265 646.704L73.3265 654.175ZM81.83 649.858L81.83 647.487L75.711 647.487L75.711 649.858L81.83 649.858ZM85.5536 646.562C85.1583 645.328 84.5022 644.38 83.5851 643.716C82.668 643.051 81.6166 642.719 80.4307 642.719C78.7547 642.719 77.4186 643.241 76.4225 644.285C75.4264 645.328 74.9284 646.791 74.9284 648.672C74.9284 650.57 75.4264 652.048 76.4225 653.108C77.4186 654.151 78.7547 654.673 80.4307 654.673C81.7273 654.673 82.842 654.317 83.7748 653.606C84.7235 652.894 85.3323 651.89 85.6011 650.594L82.7787 650.19C82.6522 650.823 82.3755 651.313 81.9486 651.661C81.5375 651.993 81.0316 652.159 80.4307 652.159C79.6085 652.159 78.9682 651.858 78.5096 651.258C78.0511 650.657 77.8218 649.795 77.8218 648.672C77.8218 647.566 78.0511 646.712 78.5096 646.111C78.9682 645.51 79.6085 645.21 80.4307 645.21C81.6324 645.21 82.4151 645.795 82.7787 646.965L85.5536 646.562ZM92.2619 643.265L95.1316 643.265L95.1316 648.032L99.5193 643.265L103.006 643.265L98.6655 648.293L103.006 654.175L99.5667 654.175L96.6258 650.001L95.1316 651.59L95.1316 654.175L92.2619 654.175L92.2619 643.265ZM106.889 648.672C106.889 649.795 107.111 650.657 107.553 651.258C107.996 651.858 108.613 652.159 109.403 652.159C110.194 652.159 110.81 651.858 111.253 651.258C111.696 650.657 111.917 649.795 111.917 648.672C111.917 647.566 111.696 646.712 111.253 646.111C110.81 645.51 110.194 645.21 109.403 645.21C108.613 645.21 107.996 645.51 107.553 646.111C107.111 646.712 106.889 647.566 106.889 648.672ZM103.996 648.672C103.996 646.791 104.478 645.328 105.442 644.285C106.423 643.241 107.743 642.719 109.403 642.719C110.953 642.719 112.241 643.249 113.269 644.308C114.297 645.368 114.811 646.822 114.811 648.672C114.811 650.57 114.321 652.048 113.34 653.108C112.36 654.151 111.04 654.673 109.379 654.673C107.735 654.673 106.423 654.151 105.442 653.108C104.478 652.048 103.996 650.57 103.996 648.672ZM120.024 651.329C119.55 650.728 119.313 649.866 119.313 648.744C119.313 647.621 119.55 646.759 120.024 646.158C120.498 645.558 121.155 645.257 121.993 645.257C122.831 645.257 123.479 645.558 123.937 646.158C124.412 646.759 124.649 647.621 124.649 648.744C124.649 649.866 124.412 650.728 123.937 651.329C123.479 651.93 122.831 652.23 121.993 652.23C121.155 652.23 120.498 651.93 120.024 651.329ZM118.72 648.744C118.72 650.657 119.075 652.135 119.787 653.179C120.498 654.206 121.494 654.72 122.775 654.72C124.119 654.72 125.25 654.191 126.167 653.131C127.084 652.056 127.542 650.57 127.542 648.672C127.542 646.854 127.108 645.415 126.238 644.356C125.384 643.297 124.269 642.767 122.894 642.767C121.566 642.767 120.538 643.289 119.811 644.332C119.083 645.36 118.72 646.83 118.72 648.744ZM116.419 658.823L119.313 658.823L119.313 654.175L118.506 651.4L119.313 651.092L119.313 646.348L118.53 646.04L119.313 643.265L116.419 643.265L116.419 658.823ZM132.051 643.265L129.158 643.265L129.158 654.175L132.573 654.175L136.889 647.083L136.889 654.175L139.736 654.175L139.736 643.265L136.368 643.265L132.051 650.309L132.051 643.265ZM152.075 647.036L149.347 647.439C149.158 646.728 148.849 646.182 148.423 645.803C147.996 645.407 147.474 645.21 146.857 645.21C146.035 645.21 145.395 645.51 144.936 646.111C144.478 646.712 144.248 647.566 144.248 648.672C144.248 649.795 144.478 650.657 144.936 651.258C145.395 651.858 146.035 652.159 146.857 652.159C147.521 652.159 148.075 651.945 148.517 651.518C148.976 651.092 149.268 650.491 149.395 649.716L152.17 650.119C151.901 651.558 151.284 652.681 150.32 653.487C149.355 654.278 148.201 654.673 146.857 654.673C145.197 654.673 143.869 654.151 142.873 653.108C141.877 652.048 141.379 650.57 141.379 648.672C141.379 646.791 141.877 645.328 142.873 644.285C143.869 643.241 145.197 642.719 146.857 642.719C148.075 642.719 149.15 643.099 150.083 643.858C151.016 644.601 151.68 645.66 152.075 647.036ZM153.33 643.265L153.33 645.945L156.792 645.945L156.792 654.175L159.686 654.175L159.686 645.945L163.196 645.945L163.196 643.265L153.33 643.265ZM167.673 651.471L169.997 651.471C171.341 651.471 172.013 651.107 172.013 650.38C172.013 649.621 171.317 649.242 169.926 649.242L167.673 649.242L167.673 651.471ZM167.673 643.265L167.673 646.49L170.163 646.49C171.586 646.49 172.724 646.838 173.578 647.534C174.448 648.23 174.883 649.194 174.883 650.428C174.883 651.629 174.479 652.554 173.673 653.202C172.882 653.851 171.744 654.175 170.258 654.175L164.803 654.175L164.803 643.265L167.673 643.265ZM32.3933 667.265L32.3933 669.945L35.856 669.945L35.856 678.175L38.7495 678.175L38.7495 669.945L42.2596 669.945L42.2596 667.265L32.3933 667.265ZM46.3804 674.973C46.3804 675.368 46.5307 675.661 46.8311 675.851C47.1315 676.04 47.5268 676.135 48.0169 676.135C48.6968 676.135 49.2502 675.937 49.6771 675.542C50.1198 675.147 50.3412 674.641 50.3412 674.024L50.7918 674.024C50.7918 675.416 50.444 676.538 49.7483 677.392C49.0526 678.246 48.1355 678.673 46.9971 678.673C45.9852 678.673 45.1472 678.38 44.4831 677.795C43.8348 677.194 43.5107 676.428 43.5107 675.495C43.5107 674.641 43.7637 673.969 44.2696 673.479C44.7756 672.973 45.5662 672.562 46.6413 672.246L50.3412 671.226L50.3412 673.076L47.6375 673.835C46.7995 674.072 46.3804 674.451 46.3804 674.973ZM53.211 678.175L50.3412 678.175L51.1239 675.447L50.3412 675.092L50.3412 670.965C50.3412 670.459 50.1673 670.056 49.8194 669.755C49.4716 669.455 49.013 669.305 48.4438 669.305C47.8588 669.305 47.3766 669.494 46.9971 669.874C46.6176 670.237 46.3963 670.712 46.333 671.297L43.5107 670.917C43.6846 669.7 44.2143 668.704 45.0997 667.929C45.9852 667.154 47.1157 666.767 48.4913 666.767C49.8827 666.767 51.0132 667.146 51.8828 667.905C52.7683 668.664 53.211 669.597 53.211 670.704L53.211 678.175ZM63.1344 675.779L66.0516 675.779C67.3165 675.779 67.9489 675.439 67.9489 674.76C67.9489 674.159 67.3165 673.858 66.0516 673.858L63.1344 673.858L63.1344 675.779ZM63.1344 671.487L66.0516 671.487C67.1426 671.487 67.6881 671.178 67.6881 670.562C67.6881 670.245 67.5616 670.016 67.3086 669.874C67.0556 669.716 66.6366 669.637 66.0516 669.637L63.1344 669.637L63.1344 671.487ZM67.8778 672.506L67.8778 672.815C68.7632 672.957 69.4747 673.25 70.0123 673.692C70.5499 674.119 70.8187 674.633 70.8187 675.234C70.8187 676.135 70.4155 676.855 69.6091 677.392C68.8028 677.914 67.7039 678.175 66.3125 678.175L60.2646 678.175L60.2646 667.265L66.3125 667.265C67.6881 667.265 68.7395 667.518 69.4668 668.024C70.21 668.53 70.5815 669.218 70.5815 670.087C70.5815 670.704 70.3444 671.234 69.87 671.676C69.3957 672.119 68.7316 672.396 67.8778 672.506ZM72.1634 664.3C72.1634 663.858 72.3294 663.47 72.6614 663.138C72.9935 662.806 73.3808 662.64 73.8236 662.64C74.2821 662.64 74.6695 662.806 74.9857 663.138C75.3177 663.47 75.4838 663.858 75.4838 664.3C75.4838 664.759 75.3177 665.154 74.9857 665.486C74.6695 665.818 74.2821 665.984 73.8236 665.984C73.3808 665.984 72.9935 665.818 72.6614 665.486C72.3294 665.154 72.1634 664.759 72.1634 664.3ZM72.4242 667.265L75.294 667.265L75.294 678.175L72.4242 678.175L72.4242 667.265ZM76.8629 667.265L76.8629 669.945L80.3256 669.945L80.3256 678.175L83.2191 678.175L83.2191 669.945L86.7292 669.945L86.7292 667.265L76.8629 667.265ZM90.85 674.973C90.85 675.368 91.0002 675.661 91.3007 675.851C91.6011 676.04 91.9964 676.135 92.4865 676.135C93.1664 676.135 93.7198 675.937 94.1467 675.542C94.5894 675.147 94.8108 674.641 94.8108 674.024L95.2614 674.024C95.2614 675.416 94.9136 676.538 94.2179 677.392C93.5222 678.246 92.6051 678.673 91.4667 678.673C90.4548 678.673 89.6167 678.38 88.9527 677.795C88.3044 677.194 87.9803 676.428 87.9803 675.495C87.9803 674.641 88.2332 673.969 88.7392 673.479C89.2452 672.973 90.0358 672.562 91.1109 672.246L94.8108 671.226L94.8108 673.076L92.107 673.835C91.269 674.072 90.85 674.451 90.85 674.973ZM97.6806 678.175L94.8108 678.175L95.5935 675.447L94.8108 675.092L94.8108 670.965C94.8108 670.459 94.6369 670.056 94.289 669.755C93.9412 669.455 93.4826 669.305 92.9134 669.305C92.3284 669.305 91.8462 669.494 91.4667 669.874C91.0872 670.237 90.8658 670.712 90.8026 671.297L87.9803 670.917C88.1542 669.7 88.6839 668.704 89.5693 667.929C90.4548 667.154 91.5853 666.767 92.9609 666.767C94.3523 666.767 95.4828 667.146 96.3524 667.905C97.2378 668.664 97.6806 669.597 97.6806 670.704L97.6806 678.175ZM108.153 678.175L105.401 678.175L102.532 671.558L102.532 678.175L99.6619 678.175L99.6619 667.265L103.314 667.265L106.777 675.305L110.287 667.265L113.774 667.265L113.774 678.175L111.046 678.175L111.046 671.558L108.153 678.175ZM115.475 664.3C115.475 663.858 115.641 663.47 115.973 663.138C116.305 662.806 116.692 662.64 117.135 662.64C117.594 662.64 117.981 662.806 118.297 663.138C118.629 663.47 118.795 663.858 118.795 664.3C118.795 664.759 118.629 665.154 118.297 665.486C117.981 665.818 117.594 665.984 117.135 665.984C116.692 665.984 116.305 665.818 115.973 665.486C115.641 665.154 115.475 664.759 115.475 664.3ZM115.736 667.265L118.606 667.265L118.606 678.175L115.736 678.175L115.736 667.265ZM120.53 667.265L123.4 667.265L123.4 671.439L127.811 671.439L127.811 667.265L130.681 667.265L130.681 678.175L127.811 678.175L127.811 674.143L123.4 674.143L123.4 678.175L120.53 678.175L120.53 667.265ZM135.56 667.265L132.667 667.265L132.667 678.175L136.082 678.175L140.398 671.083L140.398 678.175L143.244 678.175L143.244 667.265L139.877 667.265L135.56 674.309L135.56 667.265Z" fill="white"/>
<path d="M239.371 643.09L242.241 643.09L242.241 647.264L246.652 647.264L246.652 643.09L249.522 643.09L249.522 654L246.652 654L246.652 649.968L242.241 649.968L242.241 654L239.371 654L239.371 643.09ZM254.045 649.304C254.124 650.174 254.401 650.838 254.875 651.296C255.35 651.755 255.99 651.984 256.796 651.984C257.429 651.984 257.951 651.834 258.362 651.533C258.789 651.217 259.057 650.79 259.168 650.253L261.943 650.68C261.674 651.865 261.081 652.798 260.164 653.478C259.247 654.158 258.125 654.498 256.796 654.498C255.041 654.498 253.658 653.968 252.646 652.909C251.65 651.834 251.152 650.363 251.152 648.498C251.152 646.664 251.626 645.217 252.575 644.157C253.539 643.082 254.859 642.545 256.535 642.545C258.227 642.545 259.548 643.082 260.496 644.157C261.461 645.217 261.943 646.616 261.943 648.355L261.943 649.304L254.045 649.304ZM254.093 647.359L259.049 647.359C259.049 646.679 258.812 646.126 258.338 645.699C257.864 645.256 257.263 645.035 256.535 645.035C255.84 645.035 255.286 645.24 254.875 645.652C254.464 646.047 254.203 646.616 254.093 647.359ZM280.53 652.055L280.53 657.795L277.636 657.795L277.636 654.806L271.09 654.806L271.09 657.795L268.244 657.795L268.244 652.055L269.027 652.055C269.296 652.055 269.517 652.024 269.691 651.96C269.881 651.897 270.062 651.755 270.236 651.533C270.426 651.296 270.568 650.925 270.663 650.419C270.758 649.897 270.806 649.233 270.806 648.426L270.806 643.09L279.249 643.09L279.249 652.055L280.53 652.055ZM276.379 652.055L276.379 645.77L273.652 645.77L273.652 648.687C273.652 650.253 273.28 651.217 272.537 651.581L272.608 652.055L276.379 652.055ZM284.664 648.498C284.664 649.62 284.885 650.482 285.328 651.083C285.771 651.684 286.387 651.984 287.178 651.984C287.968 651.984 288.585 651.684 289.028 651.083C289.47 650.482 289.692 649.62 289.692 648.498C289.692 647.391 289.47 646.537 289.028 645.936C288.585 645.335 287.968 645.035 287.178 645.035C286.387 645.035 285.771 645.335 285.328 645.936C284.885 646.537 284.664 647.391 284.664 648.498ZM281.77 648.498C281.77 646.616 282.253 645.154 283.217 644.11C284.197 643.066 285.518 642.545 287.178 642.545C288.727 642.545 290.016 643.074 291.044 644.134C292.071 645.193 292.585 646.648 292.585 648.498C292.585 650.395 292.095 651.873 291.115 652.933C290.135 653.976 288.814 654.498 287.154 654.498C285.51 654.498 284.197 653.976 283.217 652.933C282.253 651.873 281.77 650.395 281.77 648.498ZM306.1 652.055L306.1 657.795L303.206 657.795L303.206 654.806L296.66 654.806L296.66 657.795L293.814 657.795L293.814 652.055L294.597 652.055C294.866 652.055 295.087 652.024 295.261 651.96C295.451 651.897 295.632 651.755 295.806 651.533C295.996 651.296 296.138 650.925 296.233 650.419C296.328 649.897 296.376 649.233 296.376 648.426L296.376 643.09L304.819 643.09L304.819 652.055L306.1 652.055ZM301.949 652.055L301.949 645.77L299.222 645.77L299.222 648.687C299.222 650.253 298.85 651.217 298.107 651.581L298.178 652.055L301.949 652.055ZM310.234 650.798C310.234 651.193 310.384 651.486 310.684 651.676C310.985 651.865 311.38 651.96 311.87 651.96C312.55 651.96 313.104 651.763 313.53 651.367C313.973 650.972 314.195 650.466 314.195 649.85L314.645 649.85C314.645 651.241 314.297 652.364 313.602 653.217C312.906 654.071 311.989 654.498 310.85 654.498C309.839 654.498 309.001 654.206 308.336 653.621C307.688 653.02 307.364 652.253 307.364 651.32C307.364 650.466 307.617 649.794 308.123 649.304C308.629 648.798 309.42 648.387 310.495 648.071L314.195 647.051L314.195 648.901L311.491 649.66C310.653 649.897 310.234 650.276 310.234 650.798ZM317.064 654L314.195 654L314.977 651.273L314.195 650.917L314.195 646.79C314.195 646.284 314.021 645.881 313.673 645.58C313.325 645.28 312.866 645.13 312.297 645.13C311.712 645.13 311.23 645.32 310.85 645.699C310.471 646.063 310.25 646.537 310.186 647.122L307.364 646.743C307.538 645.525 308.068 644.529 308.953 643.754C309.839 642.979 310.969 642.592 312.345 642.592C313.736 642.592 314.867 642.972 315.736 643.73C316.622 644.489 317.064 645.422 317.064 646.529L317.064 654ZM325.568 649.683L325.568 647.312L319.449 647.312L319.449 649.683L325.568 649.683ZM329.291 646.387C328.896 645.154 328.24 644.205 327.323 643.541C326.406 642.877 325.354 642.545 324.169 642.545C322.493 642.545 321.156 643.066 320.16 644.11C319.164 645.154 318.666 646.616 318.666 648.498C318.666 650.395 319.164 651.873 320.16 652.933C321.156 653.976 322.493 654.498 324.169 654.498C325.465 654.498 326.58 654.142 327.513 653.431C328.461 652.719 329.07 651.715 329.339 650.419L326.517 650.016C326.39 650.648 326.113 651.138 325.686 651.486C325.275 651.818 324.769 651.984 324.169 651.984C323.346 651.984 322.706 651.684 322.247 651.083C321.789 650.482 321.56 649.62 321.56 648.498C321.56 647.391 321.789 646.537 322.247 645.936C322.706 645.335 323.346 645.035 324.169 645.035C325.37 645.035 326.153 645.62 326.517 646.79L329.291 646.387ZM339.418 654L336.667 654L333.797 647.383L333.797 654L330.927 654L330.927 643.09L334.58 643.09L338.042 651.13L341.553 643.09L345.039 643.09L345.039 654L342.312 654L342.312 647.383L339.418 654ZM349.515 648.498C349.515 649.62 349.737 650.482 350.179 651.083C350.622 651.684 351.239 651.984 352.029 651.984C352.82 651.984 353.437 651.684 353.879 651.083C354.322 650.482 354.543 649.62 354.543 648.498C354.543 647.391 354.322 646.537 353.879 645.936C353.437 645.335 352.82 645.035 352.029 645.035C351.239 645.035 350.622 645.335 350.179 645.936C349.737 646.537 349.515 647.391 349.515 648.498ZM346.622 648.498C346.622 646.616 347.104 645.154 348.069 644.11C349.049 643.066 350.369 642.545 352.029 642.545C353.579 642.545 354.867 643.074 355.895 644.134C356.923 645.193 357.437 646.648 357.437 648.498C357.437 650.395 356.947 651.873 355.966 652.933C354.986 653.976 353.666 654.498 352.006 654.498C350.361 654.498 349.049 653.976 348.069 652.933C347.104 651.873 346.622 650.395 346.622 648.498ZM230.848 667.09L233.717 667.09L233.717 671.857L238.105 667.09L241.591 667.09L237.251 672.118L241.591 678L238.152 678L235.212 673.826L233.717 675.415L233.717 678L230.848 678L230.848 667.09ZM245.475 672.498C245.475 673.62 245.696 674.482 246.139 675.083C246.582 675.684 247.198 675.984 247.989 675.984C248.78 675.984 249.396 675.684 249.839 675.083C250.282 674.482 250.503 673.62 250.503 672.498C250.503 671.391 250.282 670.537 249.839 669.936C249.396 669.335 248.78 669.035 247.989 669.035C247.198 669.035 246.582 669.335 246.139 669.936C245.696 670.537 245.475 671.391 245.475 672.498ZM242.581 672.498C242.581 670.616 243.064 669.154 244.028 668.11C245.009 667.066 246.329 666.545 247.989 666.545C249.538 666.545 250.827 667.074 251.855 668.134C252.883 669.193 253.396 670.648 253.396 672.498C253.396 674.395 252.906 675.873 251.926 676.933C250.946 677.976 249.625 678.498 247.965 678.498C246.321 678.498 245.009 677.976 244.028 676.933C243.064 675.873 242.581 674.395 242.581 672.498ZM255.005 667.09L257.875 667.09L257.875 671.264L262.286 671.264L262.286 667.09L265.156 667.09L265.156 678L262.286 678L262.286 673.968L257.875 673.968L257.875 678L255.005 678L255.005 667.09ZM277.482 670.861L274.754 671.264C274.565 670.553 274.256 670.007 273.83 669.628C273.403 669.233 272.881 669.035 272.264 669.035C271.442 669.035 270.802 669.335 270.343 669.936C269.885 670.537 269.655 671.391 269.655 672.498C269.655 673.62 269.885 674.482 270.343 675.083C270.802 675.684 271.442 675.984 272.264 675.984C272.928 675.984 273.482 675.771 273.924 675.344C274.383 674.917 274.675 674.316 274.802 673.541L277.577 673.944C277.308 675.383 276.691 676.506 275.727 677.312C274.762 678.103 273.608 678.498 272.264 678.498C270.604 678.498 269.276 677.976 268.28 676.933C267.284 675.873 266.786 674.395 266.786 672.498C266.786 670.616 267.284 669.154 268.28 668.11C269.276 667.066 270.604 666.545 272.264 666.545C273.482 666.545 274.557 666.924 275.49 667.683C276.423 668.426 277.087 669.486 277.482 670.861ZM281.63 673.304C281.709 674.174 281.986 674.838 282.46 675.296C282.935 675.755 283.575 675.984 284.381 675.984C285.014 675.984 285.536 675.834 285.947 675.533C286.374 675.217 286.642 674.79 286.753 674.253L289.528 674.68C289.259 675.865 288.666 676.798 287.749 677.478C286.832 678.158 285.71 678.498 284.381 678.498C282.626 678.498 281.243 677.968 280.231 676.909C279.235 675.834 278.737 674.363 278.737 672.498C278.737 670.664 279.211 669.217 280.16 668.157C281.124 667.082 282.445 666.545 284.121 666.545C285.812 666.545 287.133 667.082 288.081 668.157C289.046 669.217 289.528 670.616 289.528 672.355L289.528 673.304L281.63 673.304ZM281.678 671.359L286.635 671.359C286.635 670.679 286.397 670.126 285.923 669.699C285.449 669.256 284.848 669.035 284.121 669.035C283.425 669.035 282.871 669.24 282.46 669.652C282.049 670.047 281.788 670.616 281.678 671.359ZM294.741 675.154C294.267 674.553 294.03 673.691 294.03 672.569C294.03 671.446 294.267 670.584 294.741 669.984C295.216 669.383 295.872 669.082 296.71 669.082C297.548 669.082 298.196 669.383 298.655 669.984C299.129 670.584 299.366 671.446 299.366 672.569C299.366 673.691 299.129 674.553 298.655 675.154C298.196 675.755 297.548 676.055 296.71 676.055C295.872 676.055 295.216 675.755 294.741 675.154ZM293.437 672.569C293.437 674.482 293.793 675.96 294.504 677.004C295.216 678.032 296.212 678.545 297.493 678.545C298.836 678.545 299.967 678.016 300.884 676.956C301.801 675.881 302.26 674.395 302.26 672.498C302.26 670.679 301.825 669.24 300.955 668.181C300.101 667.122 298.987 666.592 297.611 666.592C296.283 666.592 295.255 667.114 294.528 668.157C293.801 669.185 293.437 670.656 293.437 672.569ZM291.136 682.649L294.03 682.649L294.03 678L293.223 675.225L294.03 674.917L294.03 670.173L293.247 669.865L294.03 667.09L291.136 667.09L291.136 682.649ZM306.745 675.605L309.662 675.605C310.927 675.605 311.559 675.265 311.559 674.585C311.559 673.984 310.927 673.683 309.662 673.683L306.745 673.683L306.745 675.605ZM306.745 671.312L309.662 671.312C310.753 671.312 311.298 671.003 311.298 670.387C311.298 670.071 311.172 669.841 310.919 669.699C310.666 669.541 310.247 669.462 309.662 669.462L306.745 669.462L306.745 671.312ZM311.488 672.332L311.488 672.64C312.374 672.782 313.085 673.075 313.623 673.517C314.16 673.944 314.429 674.458 314.429 675.059C314.429 675.96 314.026 676.68 313.22 677.217C312.413 677.739 311.314 678 309.923 678L303.875 678L303.875 667.09L309.923 667.09C311.298 667.09 312.35 667.343 313.077 667.849C313.82 668.355 314.192 669.043 314.192 669.912C314.192 670.529 313.955 671.059 313.48 671.502C313.006 671.944 312.342 672.221 311.488 672.332ZM318.549 674.798C318.549 675.193 318.699 675.486 318.999 675.676C319.3 675.865 319.695 675.96 320.185 675.96C320.865 675.96 321.418 675.763 321.845 675.367C322.288 674.972 322.509 674.466 322.509 673.85L322.96 673.85C322.96 675.241 322.612 676.364 321.917 677.217C321.221 678.071 320.304 678.498 319.165 678.498C318.153 678.498 317.315 678.206 316.651 677.621C316.003 677.02 315.679 676.253 315.679 675.32C315.679 674.466 315.932 673.794 316.438 673.304C316.944 672.798 317.734 672.387 318.81 672.071L322.509 671.051L322.509 672.901L319.806 673.66C318.968 673.897 318.549 674.276 318.549 674.798ZM325.379 678L322.509 678L323.292 675.273L322.509 674.917L322.509 670.79C322.509 670.284 322.336 669.881 321.988 669.58C321.64 669.28 321.181 669.13 320.612 669.13C320.027 669.13 319.545 669.32 319.165 669.699C318.786 670.063 318.565 670.537 318.501 671.122L315.679 670.743C315.853 669.525 316.383 668.529 317.268 667.754C318.153 666.979 319.284 666.592 320.66 666.592C322.051 666.592 323.181 666.972 324.051 667.73C324.937 668.489 325.379 669.422 325.379 670.529L325.379 678ZM327.361 667.09L330.23 667.09L330.23 671.264L334.642 671.264L334.642 667.09L337.511 667.09L337.511 678L334.642 678L334.642 673.968L330.23 673.968L330.23 678L327.361 678L327.361 667.09ZM339.141 667.09L339.141 669.77L342.604 669.77L342.604 678L345.497 678L345.497 669.77L349.008 669.77L349.008 667.09L339.141 667.09ZM350.354 664.125C350.354 663.683 350.52 663.295 350.852 662.963C351.184 662.631 351.571 662.465 352.014 662.465C352.472 662.465 352.86 662.631 353.176 662.963C353.508 663.295 353.674 663.683 353.674 664.125C353.674 664.584 353.508 664.979 353.176 665.311C352.86 665.643 352.472 665.809 352.014 665.809C351.571 665.809 351.184 665.643 350.852 665.311C350.52 664.979 350.354 664.584 350.354 664.125ZM350.614 667.09L353.484 667.09L353.484 678L350.614 678L350.614 667.09ZM358.279 675.605L361.196 675.605C362.461 675.605 363.093 675.265 363.093 674.585C363.093 673.984 362.461 673.683 361.196 673.683L358.279 673.683L358.279 675.605ZM358.279 671.312L361.196 671.312C362.287 671.312 362.832 671.003 362.832 670.387C362.832 670.071 362.706 669.841 362.453 669.699C362.2 669.541 361.781 669.462 361.196 669.462L358.279 669.462L358.279 671.312ZM363.022 672.332L363.022 672.64C363.907 672.782 364.619 673.075 365.157 673.517C365.694 673.944 365.963 674.458 365.963 675.059C365.963 675.96 365.56 676.68 364.753 677.217C363.947 677.739 362.848 678 361.457 678L355.409 678L355.409 667.09L361.457 667.09C362.832 667.09 363.884 667.343 364.611 667.849C365.354 668.355 365.726 669.043 365.726 669.912C365.726 670.529 365.489 671.059 365.014 671.502C364.54 671.944 363.876 672.221 363.022 672.332Z" fill="white"/>
<path d="M473.54 652.055L473.54 657.795L470.647 657.795L470.647 654.806L464.101 654.806L464.101 657.795L461.255 657.795L461.255 652.055L462.037 652.055C462.306 652.055 462.528 652.024 462.701 651.96C462.891 651.897 463.073 651.755 463.247 651.533C463.437 651.296 463.579 650.925 463.674 650.419C463.769 649.897 463.816 649.233 463.816 648.426L463.816 643.09L472.259 643.09L472.259 652.055L473.54 652.055ZM469.39 652.055L469.39 645.77L466.662 645.77L466.662 648.687C466.662 650.253 466.291 651.217 465.548 651.581L465.619 652.055L469.39 652.055ZM485.359 643.09L485.359 654L482.489 654L482.489 645.77L479.785 645.77L479.785 648.687C479.785 649.573 479.698 650.34 479.524 650.988C479.366 651.636 479.161 652.15 478.908 652.53C478.655 652.909 478.331 653.217 477.935 653.455C477.556 653.676 477.168 653.826 476.773 653.905C476.394 653.968 475.951 654 475.445 654L474.686 654L474.686 651.273L475.445 651.273C475.682 651.273 475.872 651.249 476.014 651.201C476.172 651.138 476.323 651.02 476.465 650.846C476.623 650.656 476.734 650.363 476.797 649.968C476.876 649.573 476.915 649.059 476.915 648.426L476.915 643.09L485.359 643.09ZM487.391 654L489.834 649.162L492.869 649.162L490.426 654L487.391 654ZM494.15 645.794L491.494 645.794C490.355 645.794 489.786 646.118 489.786 646.766C489.786 647.446 490.379 647.786 491.565 647.786L494.15 647.786L494.15 645.794ZM494.15 654L494.15 650.537L491.636 650.537C490.229 650.537 489.09 650.205 488.221 649.541C487.367 648.861 486.94 647.928 486.94 646.743C486.94 645.573 487.335 644.671 488.126 644.039C488.932 643.406 490.071 643.09 491.541 643.09L496.996 643.09L496.996 654L494.15 654ZM515.972 652.055L515.972 657.795L513.078 657.795L513.078 654.806L506.532 654.806L506.532 657.795L503.686 657.795L503.686 652.055L504.469 652.055C504.738 652.055 504.959 652.024 505.133 651.96C505.323 651.897 505.504 651.755 505.678 651.533C505.868 651.296 506.01 650.925 506.105 650.419C506.2 649.897 506.248 649.233 506.248 648.426L506.248 643.09L514.691 643.09L514.691 652.055L515.972 652.055ZM511.821 652.055L511.821 645.77L509.094 645.77L509.094 648.687C509.094 650.253 508.722 651.217 507.979 651.581L508.05 652.055L511.821 652.055ZM517.331 640.125C517.331 639.683 517.497 639.295 517.829 638.963C518.161 638.631 518.548 638.465 518.991 638.465C519.45 638.465 519.837 638.631 520.153 638.963C520.485 639.295 520.651 639.683 520.651 640.125C520.651 640.584 520.485 640.979 520.153 641.311C519.837 641.643 519.45 641.809 518.991 641.809C518.548 641.809 518.161 641.643 517.829 641.311C517.497 640.979 517.331 640.584 517.331 640.125ZM517.592 643.09L520.462 643.09L520.462 654L517.592 654L517.592 643.09ZM522.03 643.09L522.03 645.77L525.493 645.77L525.493 654L528.387 654L528.387 645.77L531.897 645.77L531.897 643.09L522.03 643.09ZM536.018 648.498C536.018 649.62 536.239 650.482 536.682 651.083C537.124 651.684 537.741 651.984 538.532 651.984C539.322 651.984 539.939 651.684 540.382 651.083C540.824 650.482 541.046 649.62 541.046 648.498C541.046 647.391 540.824 646.537 540.382 645.936C539.939 645.335 539.322 645.035 538.532 645.035C537.741 645.035 537.124 645.335 536.682 645.936C536.239 646.537 536.018 647.391 536.018 648.498ZM533.124 648.498C533.124 646.616 533.606 645.154 534.571 644.11C535.551 643.066 536.871 642.545 538.532 642.545C540.081 642.545 541.37 643.074 542.397 644.134C543.425 645.193 543.939 646.648 543.939 648.498C543.939 650.395 543.449 651.873 542.469 652.933C541.488 653.976 540.168 654.498 538.508 654.498C536.863 654.498 535.551 653.976 534.571 652.933C533.606 651.873 533.124 650.395 533.124 648.498ZM545.547 643.09L548.417 643.09L548.417 647.857L552.805 643.09L556.291 643.09L551.951 648.118L556.291 654L552.852 654L549.911 649.826L548.417 651.415L548.417 654L545.547 654L545.547 643.09ZM454.923 664.125C454.923 663.683 455.089 663.295 455.421 662.963C455.753 662.631 456.14 662.465 456.583 662.465C457.042 662.465 457.429 662.631 457.745 662.963C458.077 663.295 458.243 663.683 458.243 664.125C458.243 664.584 458.077 664.979 457.745 665.311C457.429 665.643 457.042 665.809 456.583 665.809C456.14 665.809 455.753 665.643 455.421 665.311C455.089 664.979 454.923 664.584 454.923 664.125ZM455.184 667.09L458.054 667.09L458.054 678L455.184 678L455.184 667.09ZM476.957 676.055L476.957 681.795L474.063 681.795L474.063 678.806L467.517 678.806L467.517 681.795L464.671 681.795L464.671 676.055L465.454 676.055C465.722 676.055 465.944 676.024 466.118 675.96C466.308 675.897 466.489 675.755 466.663 675.533C466.853 675.296 466.995 674.925 467.09 674.419C467.185 673.897 467.232 673.233 467.232 672.426L467.232 667.09L475.676 667.09L475.676 676.055L476.957 676.055ZM472.806 676.055L472.806 669.77L470.079 669.77L470.079 672.687C470.079 674.253 469.707 675.217 468.964 675.581L469.035 676.055L472.806 676.055ZM481.091 672.498C481.091 673.62 481.312 674.482 481.755 675.083C482.197 675.684 482.814 675.984 483.605 675.984C484.395 675.984 485.012 675.684 485.455 675.083C485.897 674.482 486.119 673.62 486.119 672.498C486.119 671.391 485.897 670.537 485.455 669.936C485.012 669.335 484.395 669.035 483.605 669.035C482.814 669.035 482.197 669.335 481.755 669.936C481.312 670.537 481.091 671.391 481.091 672.498ZM478.197 672.498C478.197 670.616 478.679 669.154 479.644 668.11C480.624 667.066 481.945 666.545 483.605 666.545C485.154 666.545 486.443 667.074 487.471 668.134C488.498 669.193 489.012 670.648 489.012 672.498C489.012 674.395 488.522 675.873 487.542 676.933C486.561 677.976 485.241 678.498 483.581 678.498C481.937 678.498 480.624 677.976 479.644 676.933C478.679 675.873 478.197 674.395 478.197 672.498ZM494.226 675.154C493.751 674.553 493.514 673.691 493.514 672.569C493.514 671.446 493.751 670.584 494.226 669.984C494.7 669.383 495.356 669.082 496.194 669.082C497.032 669.082 497.68 669.383 498.139 669.984C498.613 670.584 498.85 671.446 498.85 672.569C498.85 673.691 498.613 674.553 498.139 675.154C497.68 675.755 497.032 676.055 496.194 676.055C495.356 676.055 494.7 675.755 494.226 675.154ZM492.921 672.569C492.921 674.482 493.277 675.96 493.988 677.004C494.7 678.032 495.696 678.545 496.977 678.545C498.321 678.545 499.451 678.016 500.368 676.956C501.285 675.881 501.744 674.395 501.744 672.498C501.744 670.679 501.309 669.24 500.439 668.181C499.586 667.122 498.471 666.592 497.095 666.592C495.767 666.592 494.739 667.114 494.012 668.157C493.285 669.185 492.921 670.656 492.921 672.569ZM490.621 682.649L493.514 682.649L493.514 678L492.708 675.225L493.514 674.917L493.514 670.173L492.731 669.865L493.514 667.09L490.621 667.09L490.621 682.649ZM505.873 672.498C505.873 673.62 506.095 674.482 506.537 675.083C506.98 675.684 507.597 675.984 508.387 675.984C509.178 675.984 509.794 675.684 510.237 675.083C510.68 674.482 510.901 673.62 510.901 672.498C510.901 671.391 510.68 670.537 510.237 669.936C509.794 669.335 509.178 669.035 508.387 669.035C507.597 669.035 506.98 669.335 506.537 669.936C506.095 670.537 505.873 671.391 505.873 672.498ZM502.98 672.498C502.98 670.616 503.462 669.154 504.426 668.11C505.407 667.066 506.727 666.545 508.387 666.545C509.937 666.545 511.225 667.074 512.253 668.134C513.281 669.193 513.795 670.648 513.795 672.498C513.795 674.395 513.305 675.873 512.324 676.933C511.344 677.976 510.024 678.498 508.364 678.498C506.719 678.498 505.407 677.976 504.426 676.933C503.462 675.873 502.98 674.395 502.98 672.498ZM525.744 670.861L523.016 671.264C522.827 670.553 522.518 670.007 522.091 669.628C521.664 669.233 521.143 669.035 520.526 669.035C519.704 669.035 519.063 669.335 518.605 669.936C518.146 670.537 517.917 671.391 517.917 672.498C517.917 673.62 518.146 674.482 518.605 675.083C519.063 675.684 519.704 675.984 520.526 675.984C521.19 675.984 521.743 675.771 522.186 675.344C522.645 674.917 522.937 674.316 523.064 673.541L525.839 673.944C525.57 675.383 524.953 676.506 523.989 677.312C523.024 678.103 521.87 678.498 520.526 678.498C518.866 678.498 517.538 677.976 516.541 676.933C515.545 675.873 515.047 674.395 515.047 672.498C515.047 670.616 515.545 669.154 516.541 668.11C517.538 667.066 518.866 666.545 520.526 666.545C521.743 666.545 522.819 666.924 523.751 667.683C524.684 668.426 525.348 669.486 525.744 670.861ZM537.553 667.09L537.553 678L534.683 678L534.683 669.77L531.979 669.77L531.979 672.687C531.979 673.573 531.892 674.34 531.718 674.988C531.56 675.636 531.355 676.15 531.102 676.53C530.849 676.909 530.524 677.217 530.129 677.455C529.75 677.676 529.362 677.826 528.967 677.905C528.588 677.968 528.145 678 527.639 678L526.88 678L526.88 675.273L527.639 675.273C527.876 675.273 528.066 675.249 528.208 675.201C528.366 675.138 528.516 675.02 528.659 674.846C528.817 674.656 528.927 674.363 528.991 673.968C529.07 673.573 529.109 673.059 529.109 672.426L529.109 667.09L537.553 667.09ZM542.431 667.09L539.537 667.09L539.537 678L542.952 678L547.269 670.909L547.269 678L550.115 678L550.115 667.09L546.747 667.09L542.431 674.134L542.431 667.09ZM557.521 670.648L559.608 667.09L562.763 667.09L559.466 672.521L562.763 678L559.632 678L557.521 674.371L557.284 673.375L556.952 673.375L556.715 674.371L554.628 678L551.473 678L554.77 672.521L551.473 667.09L554.604 667.09L556.715 670.648L556.952 671.62L557.284 671.62L557.521 670.648Z" fill="white"/>
<path d="M677.036 651.154C676.562 650.553 676.325 649.691 676.325 648.569C676.325 647.446 676.562 646.584 677.036 645.984C677.511 645.383 678.167 645.082 679.005 645.082C679.843 645.082 680.491 645.383 680.95 645.984C681.424 646.584 681.661 647.446 681.661 648.569C681.661 649.691 681.424 650.553 680.95 651.154C680.491 651.755 679.843 652.055 679.005 652.055C678.167 652.055 677.511 651.755 677.036 651.154ZM675.732 648.569C675.732 650.482 676.088 651.96 676.799 653.004C677.511 654.032 678.507 654.545 679.787 654.545C681.131 654.545 682.262 654.016 683.179 652.956C684.096 651.881 684.555 650.395 684.555 648.498C684.555 646.679 684.12 645.24 683.25 644.181C682.396 643.122 681.282 642.592 679.906 642.592C678.578 642.592 677.55 643.114 676.823 644.157C676.095 645.185 675.732 646.656 675.732 648.569ZM673.431 658.649L676.325 658.649L676.325 654L675.518 651.225L676.325 650.917L676.325 646.173L675.542 645.865L676.325 643.09L673.431 643.09L673.431 658.649ZM688.684 650.798C688.684 651.193 688.834 651.486 689.135 651.676C689.435 651.865 689.83 651.96 690.32 651.96C691 651.96 691.554 651.763 691.981 651.367C692.423 650.972 692.645 650.466 692.645 649.85L693.095 649.85C693.095 651.241 692.747 652.364 692.052 653.217C691.356 654.071 690.439 654.498 689.301 654.498C688.289 654.498 687.451 654.206 686.787 653.621C686.138 653.02 685.814 652.253 685.814 651.32C685.814 650.466 686.067 649.794 686.573 649.304C687.079 648.798 687.87 648.387 688.945 648.071L692.645 647.051L692.645 648.901L689.941 649.66C689.103 649.897 688.684 650.276 688.684 650.798ZM695.514 654L692.645 654L693.427 651.273L692.645 650.917L692.645 646.79C692.645 646.284 692.471 645.881 692.123 645.58C691.775 645.28 691.317 645.13 690.747 645.13C690.162 645.13 689.68 645.32 689.301 645.699C688.921 646.063 688.7 646.537 688.637 647.122L685.814 646.743C685.988 645.525 686.518 644.529 687.403 643.754C688.289 642.979 689.419 642.592 690.795 642.592C692.186 642.592 693.317 642.972 694.186 643.73C695.072 644.489 695.514 645.422 695.514 646.529L695.514 654ZM704.516 648.332C705.212 648.237 705.757 647.968 706.153 647.525C706.564 647.067 706.769 646.505 706.769 645.841C706.769 644.877 706.326 644.094 705.441 643.493C704.571 642.877 703.433 642.568 702.026 642.568C700.666 642.568 699.567 642.877 698.729 643.493C697.907 644.094 697.369 644.972 697.116 646.126L699.962 646.529C700.231 645.596 700.903 645.13 701.978 645.13C702.548 645.13 703.006 645.248 703.354 645.486C703.702 645.723 703.876 646.039 703.876 646.434C703.876 646.687 703.741 646.893 703.473 647.051C703.22 647.209 702.88 647.288 702.453 647.288L700.318 647.288L700.318 649.683L702.453 649.683C702.88 649.683 703.22 649.77 703.473 649.944C703.741 650.118 703.876 650.363 703.876 650.68C703.876 651.122 703.694 651.486 703.33 651.771C702.982 652.039 702.516 652.174 701.931 652.174C700.887 652.174 700.231 651.589 699.962 650.419L697.116 650.798C697.369 652.016 697.907 652.949 698.729 653.597C699.567 654.229 700.658 654.545 702.002 654.545C703.409 654.545 704.556 654.206 705.441 653.526C706.326 652.846 706.769 651.976 706.769 650.917C706.769 650.3 706.564 649.786 706.153 649.375C705.757 648.964 705.212 648.711 704.516 648.616L704.516 648.332ZM707.741 646.292L716.422 646.292L716.422 648.664L707.741 648.664L707.741 646.292ZM729.645 652.055L729.645 657.795L726.751 657.795L726.751 654.806L720.205 654.806L720.205 657.795L717.359 657.795L717.359 652.055L718.142 652.055C718.411 652.055 718.632 652.024 718.806 651.96C718.996 651.897 719.178 651.755 719.351 651.533C719.541 651.296 719.684 650.925 719.778 650.419C719.873 649.897 719.921 649.233 719.921 648.426L719.921 643.09L728.364 643.09L728.364 652.055L729.645 652.055ZM725.494 652.055L725.494 645.77L722.767 645.77L722.767 648.687C722.767 650.253 722.395 651.217 721.652 651.581L721.723 652.055L725.494 652.055ZM734.135 651.605L737.052 651.605C738.317 651.605 738.949 651.265 738.949 650.585C738.949 649.984 738.317 649.683 737.052 649.683L734.135 649.683L734.135 651.605ZM734.135 647.312L737.052 647.312C738.143 647.312 738.688 647.003 738.688 646.387C738.688 646.071 738.562 645.841 738.309 645.699C738.056 645.541 737.637 645.462 737.052 645.462L734.135 645.462L734.135 647.312ZM738.878 648.332L738.878 648.64C739.764 648.782 740.475 649.075 741.013 649.517C741.55 649.944 741.819 650.458 741.819 651.059C741.819 651.96 741.416 652.68 740.609 653.217C739.803 653.739 738.704 654 737.313 654L731.265 654L731.265 643.09L737.313 643.09C738.688 643.09 739.74 643.343 740.467 643.849C741.21 644.355 741.582 645.043 741.582 645.912C741.582 646.529 741.345 647.059 740.87 647.502C740.396 647.944 739.732 648.221 738.878 648.332ZM745.939 650.798C745.939 651.193 746.089 651.486 746.389 651.676C746.69 651.865 747.085 651.96 747.575 651.96C748.255 651.96 748.808 651.763 749.235 651.367C749.678 650.972 749.899 650.466 749.899 649.85L750.35 649.85C750.35 651.241 750.002 652.364 749.306 653.217C748.611 654.071 747.694 654.498 746.555 654.498C745.543 654.498 744.705 654.206 744.041 653.621C743.393 653.02 743.069 652.253 743.069 651.32C743.069 650.466 743.322 649.794 743.828 649.304C744.334 648.798 745.124 648.387 746.199 648.071L749.899 647.051L749.899 648.901L747.196 649.66C746.358 649.897 745.939 650.276 745.939 650.798ZM752.769 654L749.899 654L750.682 651.273L749.899 650.917L749.899 646.79C749.899 646.284 749.725 645.881 749.378 645.58C749.03 645.28 748.571 645.13 748.002 645.13C747.417 645.13 746.935 645.32 746.555 645.699C746.176 646.063 745.954 646.537 745.891 647.122L743.069 646.743C743.243 645.525 743.772 644.529 744.658 643.754C745.543 642.979 746.674 642.592 748.049 642.592C749.441 642.592 750.571 642.972 751.441 643.73C752.326 644.489 752.769 645.422 752.769 646.529L752.769 654ZM676.772 664.125C676.772 663.683 676.938 663.295 677.27 662.963C677.602 662.631 677.989 662.465 678.432 662.465C678.891 662.465 679.278 662.631 679.594 662.963C679.926 663.295 680.092 663.683 680.092 664.125C680.092 664.584 679.926 664.979 679.594 665.311C679.278 665.643 678.891 665.809 678.432 665.809C677.989 665.809 677.602 665.643 677.27 665.311C676.938 664.979 676.772 664.584 676.772 664.125ZM677.033 667.09L679.903 667.09L679.903 678L677.033 678L677.033 667.09ZM686.9 667.09L686.9 678L689.769 678L689.769 669.77L695.414 669.77L695.414 667.09L686.9 667.09ZM699.327 672.498C699.327 673.62 699.548 674.482 699.991 675.083C700.433 675.684 701.05 675.984 701.841 675.984C702.631 675.984 703.248 675.684 703.69 675.083C704.133 674.482 704.355 673.62 704.355 672.498C704.355 671.391 704.133 670.537 703.69 669.936C703.248 669.335 702.631 669.035 701.841 669.035C701.05 669.035 700.433 669.335 699.991 669.936C699.548 670.537 699.327 671.391 699.327 672.498ZM696.433 672.498C696.433 670.616 696.915 669.154 697.88 668.11C698.86 667.066 700.18 666.545 701.841 666.545C703.39 666.545 704.679 667.074 705.706 668.134C706.734 669.193 707.248 670.648 707.248 672.498C707.248 674.395 706.758 675.873 705.778 676.933C704.797 677.976 703.477 678.498 701.817 678.498C700.172 678.498 698.86 677.976 697.88 676.933C696.915 675.873 696.433 674.395 696.433 672.498ZM708.501 667.09L708.501 669.77L711.963 669.77L711.963 678L714.857 678L714.857 669.77L718.367 669.77L718.367 667.09L708.501 667.09ZM722.488 672.498C722.488 673.62 722.709 674.482 723.152 675.083C723.595 675.684 724.211 675.984 725.002 675.984C725.792 675.984 726.409 675.684 726.852 675.083C727.294 674.482 727.516 673.62 727.516 672.498C727.516 671.391 727.294 670.537 726.852 669.936C726.409 669.335 725.792 669.035 725.002 669.035C724.211 669.035 723.595 669.335 723.152 669.936C722.709 670.537 722.488 671.391 722.488 672.498ZM719.594 672.498C719.594 670.616 720.077 669.154 721.041 668.11C722.021 667.066 723.342 666.545 725.002 666.545C726.551 666.545 727.84 667.074 728.868 668.134C729.895 669.193 730.409 670.648 730.409 672.498C730.409 674.395 729.919 675.873 728.939 676.933C727.959 677.976 726.638 678.498 724.978 678.498C723.334 678.498 722.021 677.976 721.041 676.933C720.077 675.873 719.594 674.395 719.594 672.498ZM734.887 675.605L737.805 675.605C739.07 675.605 739.702 675.265 739.702 674.585C739.702 673.984 739.07 673.683 737.805 673.683L734.887 673.683L734.887 675.605ZM734.887 671.312L737.805 671.312C738.896 671.312 739.441 671.003 739.441 670.387C739.441 670.071 739.315 669.841 739.062 669.699C738.809 669.541 738.39 669.462 737.805 669.462L734.887 669.462L734.887 671.312ZM739.631 672.332L739.631 672.64C740.516 672.782 741.228 673.075 741.765 673.517C742.303 673.944 742.572 674.458 742.572 675.059C742.572 675.96 742.169 676.68 741.362 677.217C740.556 677.739 739.457 678 738.065 678L732.018 678L732.018 667.09L738.065 667.09C739.441 667.09 740.493 667.343 741.22 667.849C741.963 668.355 742.335 669.043 742.335 669.912C742.335 670.529 742.097 671.059 741.623 671.502C741.149 671.944 740.485 672.221 739.631 672.332ZM746.691 672.498C746.691 673.62 746.913 674.482 747.355 675.083C747.798 675.684 748.415 675.984 749.205 675.984C749.996 675.984 750.613 675.684 751.055 675.083C751.498 674.482 751.719 673.62 751.719 672.498C751.719 671.391 751.498 670.537 751.055 669.936C750.613 669.335 749.996 669.035 749.205 669.035C748.415 669.035 747.798 669.335 747.355 669.936C746.913 670.537 746.691 671.391 746.691 672.498ZM743.798 672.498C743.798 670.616 744.28 669.154 745.245 668.11C746.225 667.066 747.545 666.545 749.205 666.545C750.755 666.545 752.043 667.074 753.071 668.134C754.099 669.193 754.613 670.648 754.613 672.498C754.613 674.395 754.123 675.873 753.142 676.933C752.162 677.976 750.842 678.498 749.182 678.498C747.537 678.498 746.225 677.976 745.245 676.933C744.28 675.873 743.798 674.395 743.798 672.498Z" fill="white"/>
<path d="M870.666 643.09L873.536 643.09L873.536 647.264L877.947 647.264L877.947 643.09L880.817 643.09L880.817 654L877.947 654L877.947 649.968L873.536 649.968L873.536 654L870.666 654L870.666 643.09ZM888.257 650.039L890.344 643.09L893.451 643.09L888.921 655.992C888.652 656.814 888.218 657.447 887.617 657.89C887.032 658.332 886.384 658.554 885.672 658.554L882.85 658.554L882.826 655.969L884.557 655.969C884.921 655.969 885.206 655.889 885.411 655.731C885.617 655.589 885.767 655.336 885.862 654.972L886.146 654L882.162 643.09L885.269 643.09L887.403 650.039L887.664 651.367L887.973 651.367L888.257 650.039ZM911.778 652.055L911.778 657.795L908.885 657.795L908.885 654.806L902.339 654.806L902.339 657.795L899.493 657.795L899.493 652.055L900.275 652.055C900.544 652.055 900.765 652.024 900.939 651.96C901.129 651.897 901.311 651.755 901.485 651.533C901.675 651.296 901.817 650.925 901.912 650.419C902.007 649.897 902.054 649.233 902.054 648.426L902.054 643.09L910.497 643.09L910.497 652.055L911.778 652.055ZM907.628 652.055L907.628 645.77L904.9 645.77L904.9 648.687C904.9 650.253 904.529 651.217 903.785 651.581L903.857 652.055L907.628 652.055ZM918.853 650.039L920.94 643.09L924.047 643.09L919.517 655.992C919.248 656.814 918.814 657.447 918.213 657.89C917.628 658.332 916.98 658.554 916.268 658.554L913.446 658.554L913.422 655.969L915.153 655.969C915.517 655.969 915.802 655.889 916.007 655.731C916.213 655.589 916.363 655.336 916.458 654.972L916.742 654L912.758 643.09L915.865 643.09L917.999 650.039L918.26 651.367L918.569 651.367L918.853 650.039ZM930.851 650.039L932.938 643.09L936.045 643.09L931.515 655.992C931.246 656.814 930.811 657.447 930.21 657.89C929.625 658.332 928.977 658.554 928.266 658.554L925.443 658.554L925.419 655.969L927.151 655.969C927.514 655.969 927.799 655.889 928.005 655.731C928.21 655.589 928.36 655.336 928.455 654.972L928.74 654L924.755 643.09L927.862 643.09L929.997 650.039L930.258 651.367L930.566 651.367L930.851 650.039ZM942.848 650.039L944.935 643.09L948.042 643.09L943.512 655.992C943.243 656.814 942.809 657.447 942.208 657.89C941.623 658.332 940.975 658.554 940.263 658.554L937.441 658.554L937.417 655.969L939.148 655.969C939.512 655.969 939.797 655.889 940.002 655.731C940.208 655.589 940.358 655.336 940.453 654.972L940.737 654L936.753 643.09L939.86 643.09L941.994 650.039L942.255 651.367L942.564 651.367L942.848 650.039ZM958.308 647.169L958.901 647.169L961.581 643.09L964.973 643.09L961.154 648.521L964.973 654L961.558 654L958.901 649.897L958.308 649.897L958.308 654L955.439 654L955.439 649.897L954.822 649.897L952.142 654L948.75 654L952.593 648.521L948.75 643.09L952.166 643.09L954.822 647.169L955.439 647.169L955.439 643.09L958.308 643.09L958.308 647.169ZM968.859 649.304C968.938 650.174 969.215 650.838 969.69 651.296C970.164 651.755 970.804 651.984 971.611 651.984C972.243 651.984 972.765 651.834 973.176 651.533C973.603 651.217 973.872 650.79 973.982 650.253L976.757 650.68C976.488 651.865 975.895 652.798 974.978 653.478C974.061 654.158 972.939 654.498 971.611 654.498C969.856 654.498 968.472 653.968 967.46 652.909C966.464 651.834 965.966 650.363 965.966 648.498C965.966 646.664 966.44 645.217 967.389 644.157C968.353 643.082 969.674 642.545 971.35 642.545C973.042 642.545 974.362 643.082 975.31 644.157C976.275 645.217 976.757 646.616 976.757 648.355L976.757 649.304L968.859 649.304ZM968.907 647.359L973.864 647.359C973.864 646.679 973.627 646.126 973.152 645.699C972.678 645.256 972.077 645.035 971.35 645.035C970.654 645.035 970.101 645.24 969.69 645.652C969.278 646.047 969.018 646.616 968.907 647.359ZM900.045 670.861L897.317 671.264C897.128 670.553 896.819 670.007 896.393 669.628C895.966 669.233 895.444 669.035 894.827 669.035C894.005 669.035 893.365 669.335 892.906 669.936C892.448 670.537 892.218 671.391 892.218 672.498C892.218 673.62 892.448 674.482 892.906 675.083C893.365 675.684 894.005 675.984 894.827 675.984C895.491 675.984 896.045 675.771 896.487 675.344C896.946 674.917 897.238 674.316 897.365 673.541L900.14 673.944C899.871 675.383 899.254 676.506 898.29 677.312C897.325 678.103 896.171 678.498 894.827 678.498C893.167 678.498 891.839 677.976 890.843 676.933C889.847 675.873 889.349 674.395 889.349 672.498C889.349 670.616 889.847 669.154 890.843 668.11C891.839 667.066 893.167 666.545 894.827 666.545C896.045 666.545 897.12 666.924 898.053 667.683C898.986 668.426 899.65 669.486 900.045 670.861ZM910.146 678L907.395 678L904.525 671.383L904.525 678L901.655 678L901.655 667.09L905.308 667.09L908.771 675.13L912.281 667.09L915.767 667.09L915.767 678L913.04 678L913.04 671.383L910.146 678ZM920.243 674.798C920.243 675.193 920.394 675.486 920.694 675.676C920.994 675.865 921.39 675.96 921.88 675.96C922.56 675.96 923.113 675.763 923.54 675.367C923.983 674.972 924.204 674.466 924.204 673.85L924.655 673.85C924.655 675.241 924.307 676.364 923.611 677.217C922.916 678.071 921.998 678.498 920.86 678.498C919.848 678.498 919.01 678.206 918.346 677.621C917.698 677.02 917.374 676.253 917.374 675.32C917.374 674.466 917.627 673.794 918.133 673.304C918.639 672.798 919.429 672.387 920.504 672.071L924.204 671.051L924.204 672.901L921.5 673.66C920.662 673.897 920.243 674.276 920.243 674.798ZM927.074 678L924.204 678L924.987 675.273L924.204 674.917L924.204 670.79C924.204 670.284 924.03 669.881 923.682 669.58C923.335 669.28 922.876 669.13 922.307 669.13C921.722 669.13 921.24 669.32 920.86 669.699C920.481 670.063 920.259 670.537 920.196 671.122L917.374 670.743C917.548 669.525 918.077 668.529 918.963 667.754C919.848 666.979 920.979 666.592 922.354 666.592C923.746 666.592 924.876 666.972 925.746 667.73C926.631 668.489 927.074 669.422 927.074 670.529L927.074 678ZM931.735 670.648C931.735 671.169 931.901 671.596 932.233 671.928C932.581 672.245 933.032 672.403 933.585 672.403C934.186 672.403 934.684 672.245 935.079 671.928C935.475 671.612 935.728 671.272 935.838 670.909L936.953 672.498C936.083 674.11 934.621 674.917 932.565 674.917C931.506 674.917 930.621 674.601 929.909 673.968C929.198 673.32 928.842 672.513 928.842 671.549L928.842 667.09L931.735 667.09L931.735 670.648ZM935.364 667.09L938.234 667.09L938.234 678L935.364 678L935.364 667.09ZM940.219 667.09L943.089 667.09L943.089 671.264L947.5 671.264L947.5 667.09L950.37 667.09L950.37 678L947.5 678L947.5 673.968L943.089 673.968L943.089 678L940.219 678L940.219 667.09ZM954.869 672.498C954.869 673.62 955.091 674.482 955.534 675.083C955.976 675.684 956.593 675.984 957.383 675.984C958.174 675.984 958.791 675.684 959.233 675.083C959.676 674.482 959.897 673.62 959.897 672.498C959.897 671.391 959.676 670.537 959.233 669.936C958.791 669.335 958.174 669.035 957.383 669.035C956.593 669.035 955.976 669.335 955.534 669.936C955.091 670.537 954.869 671.391 954.869 672.498ZM951.976 672.498C951.976 670.616 952.458 669.154 953.423 668.11C954.403 667.066 955.723 666.545 957.383 666.545C958.933 666.545 960.222 667.074 961.249 668.134C962.277 669.193 962.791 670.648 962.791 672.498C962.791 674.395 962.301 675.873 961.321 676.933C960.34 677.976 959.02 678.498 957.36 678.498C955.715 678.498 954.403 677.976 953.423 676.933C952.458 675.873 951.976 674.395 951.976 672.498Z" fill="white"/>
<path d="M371.032 233.104C365.316 233.104 360.409 231.865 356.312 229.387C352.215 226.909 349.062 223.487 346.854 219.119C344.67 214.728 343.578 209.674 343.578 203.957C343.578 198.192 344.695 193.113 346.927 188.721C349.16 184.33 352.313 180.907 356.385 178.454C360.483 175.976 365.34 174.737 370.959 174.737C375.719 174.737 379.914 175.608 383.545 177.35C387.176 179.067 390.059 181.508 392.193 184.673C394.328 187.813 395.518 191.494 395.763 195.714H381.999C381.533 192.941 380.368 190.672 378.503 188.905C376.663 187.114 374.222 186.219 371.18 186.219C368.604 186.219 366.346 186.918 364.408 188.316C362.494 189.69 360.998 191.69 359.918 194.315C358.839 196.916 358.299 200.056 358.299 203.736C358.299 207.466 358.827 210.655 359.882 213.305C360.961 215.93 362.458 217.954 364.371 219.377C366.31 220.775 368.579 221.475 371.18 221.475C373.069 221.475 374.762 221.107 376.258 220.371C377.755 219.61 378.994 218.531 379.975 217.132C380.981 215.709 381.656 213.992 381.999 211.98H395.763C395.493 216.126 394.316 219.794 392.23 222.984C390.169 226.148 387.336 228.626 383.729 230.417C380.147 232.208 375.915 233.104 371.032 233.104ZM406.252 232V175.473H430.173C437.018 175.473 442.415 176.81 446.365 179.484C450.34 182.134 452.327 185.875 452.327 190.709C452.327 193.824 451.211 196.388 448.978 198.4C446.746 200.412 443.667 201.774 439.741 202.485C442.931 202.73 445.678 203.491 447.985 204.767C450.315 206.018 452.106 207.662 453.358 209.698C454.633 211.735 455.271 214.041 455.271 216.617C455.271 219.782 454.437 222.517 452.769 224.824C451.1 227.105 448.672 228.872 445.482 230.123C442.293 231.374 438.416 232 433.853 232H406.252ZM419.795 220.886H433.853C436.184 220.886 437.999 220.334 439.299 219.23C440.624 218.126 441.287 216.617 441.287 214.703C441.287 212.544 440.624 210.839 439.299 209.588C437.999 208.337 436.184 207.711 433.853 207.711H419.795V220.886ZM419.795 198.805H430.467C432.16 198.805 433.607 198.56 434.81 198.069C436.012 197.578 436.932 196.879 437.57 195.971C438.232 195.039 438.563 193.947 438.563 192.696C438.563 190.856 437.815 189.42 436.318 188.39C434.846 187.335 432.798 186.808 430.173 186.808H419.795V198.805Z" fill="white"/>
<path d="M535.821 232L556.136 202.706L535.969 175.473H552.603L567.986 197.922H570.783V175.473H585.283V197.922H588.006L603.389 175.473H620.024L599.93 202.706L620.171 232H603.168L587.859 209.551H585.283V232H570.783V209.551H568.207L552.824 232H535.821ZM645.564 233.104C641.982 233.104 638.768 232.466 635.922 231.19C633.076 229.915 630.831 228.025 629.187 225.523C627.543 222.996 626.721 219.88 626.721 216.175C626.721 213.01 627.298 210.373 628.451 208.263C629.629 206.153 631.223 204.46 633.235 203.184C635.247 201.909 637.529 200.939 640.08 200.277C642.632 199.615 645.294 199.148 648.066 198.879C651.378 198.535 654.053 198.216 656.089 197.922C658.125 197.627 659.598 197.173 660.505 196.56C661.438 195.947 661.904 195.027 661.904 193.8V193.579C661.904 191.028 661.131 189.053 659.585 187.654C658.04 186.256 655.819 185.556 652.924 185.556C649.882 185.556 647.465 186.219 645.674 187.544C643.908 188.869 642.718 190.488 642.104 192.401L628.635 190.929C629.494 187.495 631.027 184.575 633.235 182.171C635.443 179.742 638.216 177.902 641.552 176.65C644.914 175.375 648.704 174.737 652.924 174.737C655.868 174.737 658.727 175.08 661.499 175.767C664.296 176.454 666.811 177.546 669.043 179.042C671.3 180.539 673.091 182.526 674.416 185.004C675.741 187.458 676.404 190.463 676.404 194.021V232H662.566V224.198H662.125C661.266 225.866 660.088 227.375 658.592 228.725C657.12 230.074 655.292 231.141 653.108 231.926C650.949 232.711 648.434 233.104 645.564 233.104ZM649.538 222.8C652.041 222.8 654.224 222.309 656.089 221.328C657.954 220.322 659.401 218.984 660.432 217.316C661.462 215.648 661.977 213.795 661.977 211.759V205.429C661.536 205.748 660.849 206.055 659.916 206.349C659.009 206.619 657.978 206.865 656.825 207.085C655.697 207.282 654.568 207.466 653.439 207.637C652.311 207.809 651.305 207.956 650.422 208.079C648.508 208.349 646.815 208.79 645.343 209.404C643.871 209.993 642.718 210.815 641.884 211.87C641.05 212.9 640.632 214.213 640.632 215.807C640.632 218.089 641.467 219.831 643.135 221.033C644.828 222.211 646.962 222.8 649.538 222.8Z" fill="white"/>
<path d="M467.583 174.042C472.822 174.042 477.069 169.796 477.069 164.557C477.069 159.318 472.822 155.071 467.583 155.071C462.345 155.071 458.098 159.318 458.098 164.557C458.098 169.796 462.345 174.042 467.583 174.042Z" fill="white"/>
<path d="M492.874 174.437C498.112 174.437 502.359 170.19 502.359 164.952C502.359 159.713 498.112 155.466 492.874 155.466C487.635 155.466 483.388 159.713 483.388 164.952C483.388 170.19 487.635 174.437 492.874 174.437Z" fill="white"/>
<path d="M520.949 225.543C519.332 227.074 517.542 228.412 515.615 229.529C513.386 230.818 510.992 231.797 508.498 232.439V232.439C504.307 233.521 499.924 233.633 495.683 232.767C491.442 231.901 487.454 230.078 484.023 227.439C480.592 224.8 477.808 221.413 475.882 217.536C473.957 213.659 472.941 209.394 472.912 205.065C472.912 204.998 472.912 204.935 472.912 204.868V176.597H487.147V205.065C487.199 208.806 488.721 212.376 491.385 215.003C494.049 217.63 497.64 219.102 501.381 219.102C501.972 219.103 502.562 219.066 503.148 218.991C506.556 218.564 509.695 216.919 511.985 214.36C514.275 211.801 515.563 208.5 515.611 205.065H529.845C529.821 210.074 528.467 214.986 525.923 219.3C524.565 221.603 522.891 223.705 520.949 225.543Z" fill="white"/>
<path d="M513.748 281V329.432M513.748 329.432H226C212.193 329.432 201 340.625 201 354.432V381M513.748 329.432H797C810.807 329.432 822 340.625 822 354.432V380.652M513.748 329.432V380.652" stroke="white" stroke-width="4"/>
<path d="M200.436 508.914V561.991M200.436 561.991H119C105.193 561.991 94 573.184 94 586.991V608.914M200.436 561.991H302.875M302.875 561.991V608.914M302.875 561.991H513.249M513.249 561.991V608.914M513.249 561.991V508.914M513.249 561.991H721.625M721.625 561.991V608.914M721.625 561.991H822.065M822.065 561.991V508.914M822.065 561.991H905C918.807 561.991 930 573.184 930 586.991V608.914" stroke="white" stroke-width="4"/>
</g>
<path d="M514 132L514 0" stroke="white" stroke-width="4"/>
<defs>
<clipPath id="clip0_2083_39">
<rect width="982.556" height="551" fill="white" transform="translate(0 132)"/>
</clipPath>
</defs>
</svg>
