<svg width="182" height="89" viewBox="0 0 182 89" fill="none" xmlns="http://www.w3.org/2000/svg">
<path d="M167.159 2.40916C165.61 1.08319 163.497 0.632263 161.542 1.21069C159.588 1.78778 158.06 3.31638 157.483 5.27028C156.904 7.22432 157.355 9.33812 158.681 10.8869L161.808 14.0139V14.0126C158.374 20.9241 153.959 27.3031 148.701 32.9517C140.616 41.4564 130.736 48.0498 119.78 52.252C110.812 55.7426 101.267 57.5168 91.643 57.4835C76.9046 57.466 62.4693 53.3016 49.9855 45.4655C37.503 37.6291 27.4777 26.4377 21.0574 13.1715L23.4624 10.7666C24.681 9.19904 25.0474 7.13094 24.4408 5.23994C23.8342 3.34764 22.3338 1.87807 20.4293 1.31297C18.5262 0.746631 16.4662 1.15729 14.9243 2.40943L2.89946 14.4343C1.6272 15.524 0.86757 17.0956 0.803151 18.7691C0.737389 20.4426 1.37488 22.0679 2.55857 23.253C3.74361 24.4367 5.36885 25.0742 7.04247 25.0084C8.71602 24.944 10.2876 24.1844 11.3773 22.9121L12.3395 21.9498C20.0804 36.2494 31.5295 48.2004 45.4845 56.547C59.4378 64.8947 75.3827 69.3302 91.6427 69.3879C101.123 69.3771 110.54 67.8553 119.54 64.8786L127.957 77.5046C131.581 82.9495 137.231 86.7164 143.65 87.9659C145.234 88.2826 146.846 88.4437 148.46 88.4477C154.461 88.4826 160.269 86.3326 164.8 82.3992C169.332 78.4671 172.278 73.0181 173.088 67.073C173.898 61.1276 172.518 55.0911 169.203 50.0877L160.725 37.4616C164.576 32.9307 167.978 28.0376 170.886 22.8521C172.39 24.3875 174.599 25.0048 176.681 24.4706C178.762 23.9365 180.401 22.3327 180.979 20.2619C181.558 18.1925 180.988 15.9701 179.484 14.4347L167.159 2.40916ZM155.495 74.5583C152.716 76.4291 149.306 77.1136 146.02 76.4586C142.735 75.8037 139.848 73.8644 137.999 71.0715L130.964 60.5497C138.605 56.8725 145.689 52.1365 152.007 46.4796L159.042 56.5211C161.067 59.3515 161.835 62.8918 161.163 66.3059C160.492 69.7201 158.441 72.7062 155.495 74.5584L155.495 74.5583Z" fill="#50BDFF"/>
</svg>
