<svg width="157" height="119" viewBox="0 0 157 119" fill="none" xmlns="http://www.w3.org/2000/svg">
<path d="M137.453 27.4262H109.336V15.6362C109.254 11.5973 107.623 7.74462 104.781 4.8747C101.938 2.00498 98.1005 0.337247 94.0629 0.217073H15.5191C11.5664 0.193032 7.76517 1.73797 4.94999 4.51288C2.13343 7.2877 0.534011 11.0658 0.5 15.0189V83.6604C0.532897 87.5474 2.08037 91.2686 4.8133 94.0333C7.54763 96.798 11.2512 98.3861 15.1382 98.4619C15.6608 103.841 18.1661 108.834 22.1656 112.467C26.1654 116.103 31.3746 118.118 36.7786 118.125H38.1387C43.3733 117.815 48.3208 115.626 52.0698 111.96C55.8189 108.293 58.118 103.398 58.5456 98.1723H98.6338C99.0867 103.594 101.554 108.649 105.55 112.342C109.546 116.036 114.779 118.098 120.22 118.125H121.58C126.815 117.815 131.761 115.626 135.51 111.961C139.259 108.294 141.56 103.398 141.987 98.1726H151.964C153.166 98.1726 154.32 97.6943 155.17 96.844C156.021 95.9938 156.499 94.8398 156.499 93.6378V46.4752C156.552 41.4075 154.563 36.5313 150.98 32.9477C147.396 29.3642 142.52 27.3754 137.452 27.4285L137.453 27.4262ZM46.2826 104.775C43.4673 107.938 39.2588 109.489 35.0644 108.911C30.8687 108.333 27.2372 105.701 25.3821 101.894C23.5284 98.0865 23.6942 93.6047 25.825 89.9441C27.9558 86.2835 31.7705 83.9277 35.998 83.6608H36.7774C40.014 83.6544 43.1317 84.8843 45.4914 87.0998C47.8513 89.3141 49.2761 92.3469 49.4747 95.5787C49.6746 98.9458 48.5269 102.256 46.2823 104.775L46.2826 104.775ZM129.724 104.775C126.909 107.938 122.7 109.489 118.504 108.911C114.309 108.333 110.679 105.701 108.824 101.894C106.969 98.0865 107.134 93.6047 109.265 89.9441C111.396 86.2835 115.212 83.9277 119.438 83.6608H120.219C123.455 83.6544 126.572 84.8843 128.932 87.0998C131.293 89.3141 132.718 92.3469 132.916 95.5787C133.116 98.9458 131.967 102.256 129.724 104.775L129.724 104.775ZM147.428 89.1026H140.735C138.723 83.4061 134.435 78.8017 128.895 76.3914C123.355 73.981 117.063 73.981 111.525 76.3914C105.985 78.8018 101.696 83.4061 99.6842 89.1026H57.293C55.2672 83.377 50.9412 78.7586 45.3598 76.3635C39.7797 73.967 33.4519 74.0113 27.9048 76.4863C22.359 78.9599 18.0988 83.639 16.1527 89.3925H15.5175C13.9701 89.4165 12.4758 88.8281 11.361 87.7539C10.2463 86.6796 9.60224 85.2081 9.56807 83.6605V15.019C9.60223 13.4715 10.2463 11.9999 11.361 10.9256C12.4758 9.85262 13.9701 9.26299 15.5175 9.28702H94.0613C95.6999 9.38572 97.2423 10.0905 98.3898 11.2634C99.5362 12.4376 100.206 13.9965 100.265 15.6363V66.4268C100.265 68.9308 102.296 70.9616 104.8 70.9616C107.305 70.9616 109.335 68.9308 109.335 66.4268V36.4961H137.451C140.105 36.472 142.657 37.5146 144.533 39.3911C146.409 41.2675 147.452 43.8197 147.428 46.4729L147.428 89.1026Z" fill="#50BDFF"/>
<path d="M137.453 41.9375H119.314C116.81 41.9375 114.779 43.9683 114.779 46.4724V62.7972C114.779 64.0005 115.257 65.1545 116.107 66.0047C116.958 66.855 118.11 67.3321 119.314 67.3321H137.453C138.656 67.3321 139.809 66.855 140.659 66.0047C141.51 65.1545 141.988 64.0005 141.988 62.7972V46.4724C141.988 45.2691 141.51 44.1164 140.659 43.2661C139.809 42.4158 138.656 41.9375 137.453 41.9375ZM132.918 58.2624H123.849V51.0072H132.918V58.2624Z" fill="#50BDFF"/>
</svg>
