<svg width="26" height="19" viewBox="0 0 26 19" fill="none" xmlns="http://www.w3.org/2000/svg">
<path d="M21.4602 15.6714C21.4602 15.954 21.2609 16.1574 20.9742 16.1574C20.6789 16.1574 20.4883 15.9413 20.4883 15.6714C20.4883 15.4015 20.6789 15.1854 20.9742 15.1854C21.2609 15.1854 21.4602 15.4015 21.4602 15.6714ZM7.97031 15.1854C7.66172 15.1854 7.48438 15.4015 7.48438 15.6714C7.48438 15.9413 7.6625 16.1574 7.97031 16.1574C8.25234 16.1574 8.44297 15.954 8.44297 15.6714C8.43828 15.4015 8.25234 15.1854 7.97031 15.1854ZM13.0703 15.1735C12.8359 15.1735 12.6922 15.3185 12.6578 15.5346H13.4867C13.4477 15.2976 13.2961 15.1735 13.0703 15.1735ZM17.7492 15.1854C17.4539 15.1854 17.2766 15.4015 17.2766 15.6714C17.2766 15.9413 17.4547 16.1574 17.7492 16.1574C18.0445 16.1574 18.2352 15.954 18.2352 15.6714C18.2352 15.4015 18.0437 15.1854 17.7492 15.1854ZM22.3453 16.2695C22.3453 16.2822 22.3586 16.2905 22.3586 16.3151C22.3586 16.3278 22.3453 16.3361 22.3453 16.3607C22.332 16.3734 22.332 16.3817 22.3234 16.3936C22.3102 16.4063 22.3016 16.4146 22.2758 16.4146C22.2625 16.4273 22.2539 16.4273 22.2281 16.4273C22.2148 16.4273 22.2062 16.4273 22.1805 16.4146C22.1672 16.4146 22.1586 16.4019 22.1461 16.3936C22.1328 16.3809 22.1242 16.3727 22.1242 16.3607C22.1109 16.3398 22.1109 16.3278 22.1109 16.3151C22.1109 16.2942 22.1109 16.2822 22.1242 16.2695C22.1242 16.2486 22.1375 16.2366 22.1461 16.2239C22.1594 16.2112 22.168 16.2112 22.1805 16.203C22.2023 16.1903 22.2148 16.1903 22.2281 16.1903C22.25 16.1903 22.2625 16.1903 22.2758 16.203C22.2977 16.2149 22.3102 16.2149 22.3234 16.2239C22.3367 16.2329 22.332 16.2486 22.3453 16.2695ZM22.25 16.3278C22.2719 16.3278 22.2719 16.3151 22.2844 16.3151C22.2977 16.3024 22.2977 16.2942 22.2977 16.2822C22.2977 16.2703 22.2977 16.2613 22.2844 16.2493C22.2719 16.2493 22.2625 16.2366 22.2367 16.2366H22.1672V16.3817H22.2016V16.3234H22.2148L22.2625 16.3817H22.2969L22.25 16.3278ZM25.5008 1.99397V16.6149C25.5006 17.1437 25.281 17.6508 24.8903 18.0247C24.4996 18.3986 23.9697 18.6087 23.4172 18.6089H2.58359C2.03105 18.6087 1.5012 18.3986 1.1105 18.0247C0.719794 17.6508 0.500207 17.1437 0.5 16.6149V1.99397C0.500207 1.4652 0.719794 0.958139 1.1105 0.584239C1.5012 0.21034 2.03105 0.000198154 2.58359 0H23.4172C23.9697 0.000198154 24.4996 0.21034 24.8903 0.584239C25.281 0.958139 25.5006 1.4652 25.5008 1.99397ZM3.27891 7.79196C3.27891 10.9695 5.97422 13.5444 9.28984 13.5444C10.4707 13.5411 11.6247 13.2077 12.6102 12.5851C9.44609 10.1224 9.46797 5.47426 12.6102 3.01077C11.6257 2.38621 10.471 2.05262 9.28984 2.05154C5.97422 2.0478 3.27891 4.62643 3.27891 7.79196ZM13.0008 12.3115C16.0609 10.0267 16.0477 5.57445 13.0008 3.27768C9.95391 5.57445 9.94062 10.0312 13.0008 12.3115ZM6.82422 15.4808C6.82422 15.1196 6.57656 14.8826 6.18594 14.8699C5.98594 14.8699 5.77344 14.9282 5.63047 15.1398C5.52656 14.9694 5.34844 14.8699 5.10078 14.8699C5.01079 14.8686 4.92182 14.8884 4.84163 14.9274C4.76143 14.9665 4.69243 15.0238 4.64062 15.0942V14.9118H4.28516V16.4362H4.64062C4.64062 15.6512 4.53203 15.1817 5.03125 15.1817C5.47422 15.1817 5.3875 15.6056 5.3875 16.4362H5.73047C5.73047 15.6759 5.62187 15.1817 6.12109 15.1817C6.56406 15.1817 6.47656 15.5974 6.47656 16.4362H6.83281V15.4808H6.82422ZM8.77344 14.9118H8.43047V15.0942C8.36976 15.0217 8.29229 14.9638 8.20416 14.9248C8.11604 14.8859 8.01967 14.8671 7.92266 14.8699C7.47578 14.8699 7.13281 15.2109 7.13281 15.6714C7.13281 16.1364 7.47578 16.4729 7.92266 16.4729C8.14844 16.4729 8.31328 16.3936 8.43047 16.2486V16.44H8.77344V14.9118ZM10.5312 15.9749C10.5312 15.3522 9.5375 15.634 9.5375 15.3432C9.5375 15.1062 10.0539 15.1443 10.3406 15.2976L10.4836 15.0277C10.0758 14.7742 9.17266 14.7787 9.17266 15.3686C9.17266 15.9622 10.1664 15.7133 10.1664 15.9914C10.1664 16.2531 9.58047 16.2321 9.26797 16.0243L9.11641 16.286C9.60234 16.6015 10.5312 16.5349 10.5312 15.9742V15.9749ZM12.068 16.3607L11.9727 16.0781C11.8078 16.1648 11.443 16.2605 11.443 15.9077V15.2183H12.0117V14.911H11.443V14.446H11.0867V14.911H10.757V15.2146H11.0867V15.9084C11.0867 16.6396 11.8375 16.5065 12.068 16.3607ZM12.6445 15.8045H13.8383C13.8383 15.1316 13.5172 14.8654 13.0828 14.8654C12.6227 14.8654 12.293 15.1937 12.293 15.6669C12.293 16.5185 13.2742 16.6598 13.7602 16.2568L13.5953 16.0078C13.257 16.274 12.7445 16.2486 12.6445 15.8045ZM15.2102 14.9118C15.0109 14.8288 14.707 14.837 14.5508 15.0942V14.9118H14.1945V16.4362H14.5508V15.5765C14.5508 15.0942 14.9633 15.157 15.1062 15.2273L15.2102 14.9118ZM15.6703 15.6714C15.6703 15.1974 16.1742 15.0441 16.5687 15.3223L16.7336 15.0524C16.2297 14.6748 15.3141 14.8819 15.3141 15.6751C15.3141 16.4976 16.2859 16.6635 16.7336 16.2979L16.5687 16.028C16.1695 16.2979 15.6703 16.1364 15.6703 15.6707V15.6714ZM18.5648 14.9118H18.2086V15.0942C17.8484 14.6374 16.9109 14.8953 16.9109 15.6714C16.9109 16.4691 17.8828 16.6972 18.2086 16.2486V16.44H18.5648V14.9118ZM20.0273 14.9118C19.9234 14.8617 19.55 14.7914 19.368 15.0942V14.9118H19.025V16.4362H19.368V15.5765C19.368 15.1196 19.7586 15.1488 19.9234 15.2273L20.0273 14.9118ZM21.7766 14.2927H21.4336V15.0942C21.0773 14.6419 20.1359 14.8826 20.1359 15.6714C20.1359 16.4774 21.1125 16.6927 21.4336 16.2486V16.44H21.7766V14.2927ZM22.107 11.1736V11.365H22.1414V11.1736H22.2234V11.1407H22.0234V11.1736H22.107ZM22.393 16.3151C22.393 16.2942 22.393 16.2695 22.3805 16.2486C22.3672 16.2359 22.3586 16.2157 22.3461 16.203C22.3336 16.1903 22.3117 16.182 22.2984 16.1701C22.2766 16.1701 22.2508 16.1574 22.2289 16.1574C22.2156 16.1574 22.1945 16.1701 22.168 16.1701C22.1508 16.1793 22.1348 16.1903 22.1203 16.203C22.0984 16.2149 22.0859 16.2359 22.0859 16.2486C22.0727 16.2695 22.0727 16.2942 22.0727 16.3151C22.0727 16.3278 22.0727 16.348 22.0859 16.3734C22.0859 16.3862 22.0992 16.4063 22.1203 16.4191C22.1335 16.4332 22.1498 16.4444 22.168 16.4519C22.1898 16.4639 22.2156 16.4639 22.2289 16.4639C22.2508 16.4639 22.2766 16.4639 22.2984 16.4519C22.3117 16.4392 22.3328 16.431 22.3461 16.4191C22.3594 16.4071 22.368 16.3862 22.3805 16.3734C22.393 16.3488 22.393 16.3278 22.393 16.3151ZM22.532 11.1362H22.4711L22.4016 11.2812L22.332 11.1362H22.2711V11.3605H22.3055V11.19L22.375 11.3351H22.4227L22.4836 11.19V11.3605H22.5312L22.532 11.1362ZM22.7227 7.79196C22.7227 4.62643 20.0273 2.0478 16.7117 2.0478C15.5309 2.05063 14.3767 2.38408 13.3914 3.00703C16.5211 5.47052 16.5688 10.1306 13.3914 12.5814C14.3764 13.2049 15.5308 13.5383 16.7117 13.5406C20.0273 13.5451 22.7227 10.9695 22.7227 7.79196Z" fill="#404040"/>
</svg>
